<svg xmlns="http://www.w3.org/2000/svg" xmlns:xlink="http://www.w3.org/1999/xlink" enable-background="new 0 0 75 83.8" viewBox="0 0 75 83.8"><linearGradient id="a" x1="28.441" x2="47.441" y1="11.455" y2="70.455" gradientUnits="userSpaceOnUse"><stop offset="0" stop-color="#6bf9eb"/><stop offset=".516" stop-color="#30a2e3"/><stop offset="1" stop-color="#0e48b5"/></linearGradient><linearGradient id="b" x1="4.275" x2="4.275" y1="44.795" y2="21.129" gradientTransform="matrix(1 -.00853353 .00853353 1 8.7303 -5.2917)" gradientUnits="userSpaceOnUse"><stop offset=".001" stop-color="#fb993c"/><stop offset=".999" stop-color="#ffc58e"/></linearGradient><linearGradient id="c" x1="14.813" x2="56.496" y1="21.736" y2="62.714" gradientUnits="userSpaceOnUse"><stop offset="0" stop-color="#f2f2f2"/><stop offset="1" stop-color="#b3b3b3"/></linearGradient><linearGradient id="d"><stop offset="0" stop-color="#8f31c1"/><stop offset="1" stop-color="#f56fae"/></linearGradient><linearGradient id="e" x1="23.719" x2="47.59" y1="30.265" y2="30.061" gradientUnits="userSpaceOnUse" xlink:href="#d"/><linearGradient id="f" x1="24.203" x2="47.107" y1="36.39" y2="36.194" gradientUnits="userSpaceOnUse" xlink:href="#d"/><linearGradient id="g" x1="20.203" x2="51.106" y1="39.174" y2="38.91" gradientUnits="userSpaceOnUse" xlink:href="#d"/><linearGradient id="h" x1="22.203" x2="49.106" y1="41.907" y2="41.677" gradientUnits="userSpaceOnUse" xlink:href="#d"/><linearGradient id="i" x1="28.202" x2="43.107" y1="44.605" y2="44.478" gradientUnits="userSpaceOnUse" xlink:href="#d"/><linearGradient id="j" x1="25.466" x2="45.843" y1="52.855" y2="52.681" gradientUnits="userSpaceOnUse"><stop offset="0" stop-color="#fc7d76"/><stop offset="1" stop-color="#fcac60"/></linearGradient><linearGradient id="k" x1="29.678" x2="29.678" y1="87.981" y2="58.277" gradientTransform="matrix(1 -.00853353 .00853353 1 8.7303 -5.2917)" gradientUnits="userSpaceOnUse"><stop offset="0" stop-color="#749cfc"/><stop offset="1" stop-color="#ab5af1"/></linearGradient><linearGradient id="l" x1="33.782" x2="33.782" y1="87.69" y2="74.286" gradientTransform="matrix(1 -.00853353 .00853353 1 8.7303 -5.2917)" gradientUnits="userSpaceOnUse"><stop offset="0" stop-color="#5485fb"/><stop offset="1" stop-color="#cb99ff"/></linearGradient><path fill="url(#a)" d="m66.3 52.2c0-1.6-.6-3.1-1.8-4.3l-16-16 17.3-17.3c1.1-1.1.3-3-1.3-3h-36.4l-16 16c-1.2 1.2-1.8 2.8-1.8 4.3 0 1.6.6 3.1 1.8 4.3l16 16-17.3 17.3c-1.1 1.1-.3 3 1.3 3h36.4l16-16c.3-.3.6-.6.8-1 .6-.9 1-2.1 1-3.3z"/><circle cx="13.3" cy="27.6" r="11.8" fill="url(#b)"/><path fill="#fff" d="m56.8 24c0-1.6-1.3-2.9-2.9-2.9h-36.5c-1.6 0-2.9 1.3-2.9 2.9v10.5c7.2 0 10.8 2.5 14.3 4.9 3.6 2.5 7 4.8 14 4.8s10.4-2.3 14-4.8v21.2z"/><path fill="#f6f6f6" d="m42.8 44.1c-7 0-10.4-2.3-14-4.8-3.5-2.4-7.2-4.9-14.3-4.9v26.1c0 1.6 1.3 2.9 2.9 2.9h36.5c1.6 0 2.9-1.3 2.9-2.9v-21.2c-3.6 2.5-7 4.8-14 4.8z"/><path fill="url(#c)" d="m53.9 63.9h-36.5c-1.9 0-3.4-1.5-3.4-3.4v-36.5c0-1.9 1.5-3.4 3.4-3.4h36.5c1.9 0 3.4 1.5 3.4 3.4v36.5c0 1.9-1.5 3.4-3.4 3.4zm-36.5-42.3c-1.3 0-2.4 1.1-2.4 2.4v36.5c0 1.3 1.1 2.4 2.4 2.4h36.5c1.3 0 2.4-1.1 2.4-2.4v-36.5c0-1.3-1.1-2.4-2.4-2.4z"/><path fill="url(#e)" d="m23.7 28.4h23.8v3.5h-23.8z"/><path fill="url(#f)" d="m24.2 35.8h22.9v.9h-22.9z"/><path fill="url(#g)" d="m20.2 38.6h30.9v.9h-30.9z"/><path fill="url(#h)" d="m22.2 41.3h26.9v.9h-26.9z"/><path fill="url(#i)" d="m28.2 44.1h14.9v.9h-14.9z"/><path fill="url(#j)" d="m45.2 56.1h-19.1c-.4 0-.6-.3-.6-.6v-5.3c0-.4.3-.6.6-.6h19.1c.4 0 .6.3.6.6v5.3c0 .3-.3.6-.6.6z"/><path fill="url(#k)" d="m44.6 60.2c-.5 0-.9.3-1.2.6-.1.1-.3.1-.3.1-.1-.1-.1-.2-.1-.2-.1-.7-.7-1.2-1.4-1.2-.5 0-1 .3-1.3.8-.3.4-.5 0-.5 0-.2-.5-.7-.8-1.3-.8-.5 0-.9.3-1.2.7 0 .2-.3.3-.3-.2l-.1-5.9c0-.8-.7-1.4-1.4-1.4-.8 0-1.4.7-1.4 1.4l.1 6.5c-.6-1.1-2.2-.8-2.2-.8s.1 6.9.1 8.3 1.9 3.2 2.8 4 1.1 1.5 1.1 2.4v.7c-.1 1.5-1 5.1-1 5.1 0 1.2 2.2 2.1 4.9 2.1s4.9-1 4.9-2.2c0 0-1-4.1-1.1-5.1 0 0 0 0 0-.1s0-.2 0-.6c0-1.3.5-1.6 1.6-3.7s1-5.2 1-5.2v-3.9c-.2-.7-.9-1.4-1.7-1.4z"/><path fill="url(#l)" d="m44.6 80.3s-1-4.1-1.1-5.1c0 0 0 0 0-.1s0-.2 0-.6c0-1.3.5-1.6 1.6-3.7.8-1.6 1-3.8 1-4.7-.7 1.6-1.9 3.9-3.7 5.1-3 1.9-1.2 7-1.3 8.4-.1 1 .3 2-.8 2.9 2.4-.3 4.3-1.2 4.3-2.2z"/><path fill="url(#i)" d="m28.2 44.1h14.9v.9h-14.9z"/></svg>