<svg xmlns="http://www.w3.org/2000/svg" xmlns:xlink="http://www.w3.org/1999/xlink" enable-background="new 0 0 75 83.8" viewBox="0 0 75 83.8"><linearGradient id="a" x1="251.659" x2="270.659" y1="159.563" y2="218.563" gradientUnits="userSpaceOnUse"><stop offset="0" stop-color="#0f39c3"/><stop offset="1" stop-color="#fa96d3"/></linearGradient><linearGradient id="b" x1="227.112" x2="227.112" y1="219.19" y2="195.524" gradientTransform="matrix(1 -.00853353 .00853353 1 8.7293 -5.296)" gradientUnits="userSpaceOnUse"><stop offset="0" stop-color="#fb6874"/><stop offset="1" stop-color="#f56fae"/></linearGradient><linearGradient id="c"><stop offset="0" stop-color="#f2f2f2"/><stop offset="1" stop-color="#b3b3b3"/></linearGradient><linearGradient id="d" x1="269.087" x2="289.42" y1="184.576" y2="204.564" gradientUnits="userSpaceOnUse" xlink:href="#c"/><linearGradient id="e"><stop offset="0" stop-color="#30a2e3"/><stop offset="1" stop-color="#2fddd1"/></linearGradient><linearGradient id="f" x1="271.163" x2="289.358" y1="178.848" y2="178.848" gradientUnits="userSpaceOnUse" xlink:href="#e"/><linearGradient id="g"><stop offset=".001" stop-color="#fb993c"/><stop offset=".999" stop-color="#ffc58e"/></linearGradient><linearGradient id="h" x1="274.368" x2="286.154" y1="199.962" y2="199.962" gradientUnits="userSpaceOnUse" xlink:href="#g"/><linearGradient id="i" x1="233.921" x2="254.762" y1="184.326" y2="204.814" gradientUnits="userSpaceOnUse" xlink:href="#c"/><linearGradient id="j" x1="233.751" x2="251.946" y1="178.848" y2="178.848" gradientUnits="userSpaceOnUse" xlink:href="#e"/><linearGradient id="k" x1="236.955" x2="248.742" y1="199.962" y2="199.962" gradientUnits="userSpaceOnUse" xlink:href="#g"/><linearGradient id="l" x1="250.218" x2="272.874" y1="185.123" y2="207.396" gradientUnits="userSpaceOnUse" xlink:href="#c"/><linearGradient id="m" x1="250.884" x2="272.226" y1="177.231" y2="177.231" gradientUnits="userSpaceOnUse" xlink:href="#e"/><linearGradient id="n" x1="254.642" x2="268.467" y1="202.583" y2="202.583" gradientUnits="userSpaceOnUse" xlink:href="#g"/><linearGradient id="o" x1="28.966" x2="48.677" y1="11.519" y2="72.727" gradientUnits="userSpaceOnUse"><stop offset="0" stop-color="#0e48b5"/><stop offset=".484" stop-color="#30a2e3"/><stop offset="1" stop-color="#6bf9eb"/></linearGradient><linearGradient id="p" x1="57.403" x2="57.403" y1="72.623" y2="16.398" gradientUnits="userSpaceOnUse"><stop offset="0" stop-color="#f56fae"/><stop offset="1" stop-color="#fa96d3"/></linearGradient><linearGradient id="q" x1="17.852" x2="41.519" y1="43.214" y2="43.214" gradientUnits="userSpaceOnUse" xlink:href="#g"/><linearGradient id="r" x1="9.922" x2="22.945" y1="45.063" y2="57.866" gradientUnits="userSpaceOnUse" xlink:href="#c"/><linearGradient id="s" x1="23.203" x2="36.17" y1="45.027" y2="57.775" gradientUnits="userSpaceOnUse" xlink:href="#c"/><linearGradient id="t" x1="36.453" x2="49.42" y1="45.027" y2="57.775" gradientUnits="userSpaceOnUse" xlink:href="#c"/><path fill="url(#a)" d="m289.5 200.3c0-1.6-.6-3.1-1.8-4.3l-16-16 17.3-17.3c1.1-1.1.3-3-1.3-3h-36.4l-16 16c-1.2 1.2-1.8 2.8-1.8 4.3 0 1.6.6 3.1 1.8 4.3l16 16-17.3 17.3c-1.1 1.1-.3 3 1.3 3h36.4l16-16c.3-.3.6-.6.8-1 .7-.9 1-2.1 1-3.3z"/><circle cx="237.6" cy="200.1" r="11.8" fill="url(#b)"/><path fill="#fff" d="m269.6 183.6v19.6c0 1.5 1.2 2.8 2.8 2.8h13.7c1.5 0 2.8-1.2 2.8-2.8v-19.6z"/><path fill="url(#d)" d="m270 184.5v18.9c0 1.1.9 2.1 2.1 2.1h14.4c1.1 0 2.1-.9 2.1-2.1v-18.9h.9v18.9c0 1.6-1.3 2.9-2.9 2.9h-14.4c-1.6 0-2.9-1.3-2.9-2.9v-18.9"/><path fill="url(#f)" d="m287.3 173.2h-14c-1.2 0-2.1.9-2.1 2.1v9.2h18.2v-9.2c0-1.2-1-2.1-2.1-2.1z"/><path fill="#fff" d="m281.6 177.1c-.3-.2-.6-.4-.9-.5v1.6c1.1.4 1.5.9 1.5 1.7 0 .8-.6 1.4-1.5 1.5v.8h-.7v-.8c-.6-.1-1.2-.3-1.7-.8l.5-.7c.4.3.7.6 1.2.6v-1.5c-1-.4-1.5-.8-1.5-1.7 0-.8.6-1.4 1.5-1.5v-.5h.6v.5c.5.1 1 .3 1.4.6zm-1.6.9v-1.4c-.4.1-.6.3-.6.7.1.2.2.4.6.7zm.7 1.2v1.5c.4-.1.6-.3.6-.7 0-.4-.2-.6-.6-.8z"/><g fill="#ccc"><path d="m274.3 187.9h11.8v.8h-11.8z"/><path d="m274.3 190.2h11.8v.8h-11.8z"/><path d="m284 193.3h-9.7v-.8h11.9v.8z"/><path d="m274.3 194.9h11.8v.8h-11.8z"/></g><path fill="url(#h)" d="m285.6 202.3h-10.7c-.3 0-.5-.2-.5-.5v-3.7c0-.3.2-.5.5-.5h10.7c.3 0 .5.2.5.5v3.7c.1.3-.2.5-.5.5z"/><path fill="#fff" d="m234.2 183.6v19.6c0 1.5 1.2 2.8 2.8 2.8h14.7c1.5 0 2.8-1.2 2.8-2.8v-19.6z"/><path fill="url(#i)" d="m234.6 184.5v18.9c0 1.1.9 2.1 2.1 2.1h15.3c1.1 0 2.1-.9 2.1-2.1v-18.9h.9v18.9c0 1.6-1.3 2.9-2.9 2.9h-15.4c-1.6 0-2.9-1.3-2.9-2.9v-18.9"/><path fill="url(#j)" d="m249.8 173.2h-14c-1.2 0-2.1.9-2.1 2.1v9.2h18.2v-9.2c0-1.2-.9-2.1-2.1-2.1z"/><path fill="#fff" d="m244.2 177.1c-.3-.2-.6-.4-.9-.5v1.6c1.1.4 1.5.9 1.5 1.7 0 .8-.6 1.4-1.5 1.5v.8h-.6v-.8c-.6-.1-1.2-.3-1.7-.8l.5-.7c.4.3.7.6 1.2.6v-1.5c-1-.4-1.5-.8-1.5-1.7 0-.8.6-1.4 1.5-1.5v-.5h.6v.5c.5.1 1 .3 1.4.6zm-1.6.9v-1.4c-.4.1-.6.3-.6.7.1.2.2.4.6.7zm.6 1.2v1.5c.4-.1.6-.3.6-.7.1-.4-.1-.6-.6-.8z"/><path fill="#ccc" d="m236.9 187.9h11.8v.8h-11.8z"/><path fill="#ccc" d="m236.9 190.2h11.8v.8h-11.8z"/><path fill="#ccc" d="m246.6 193.3h-9.7v-.8h11.9v.8z"/><path fill="#ccc" d="m236.9 194.9h11.8v.8h-11.8z"/><path fill="url(#k)" d="m248.2 202.3h-10.7c-.3 0-.5-.2-.5-.5v-3.7c0-.3.2-.5.5-.5h10.7c.3 0 .5.2.5.5v3.7c0 .3-.2.5-.5.5z"/><path fill="#fff" d="m251.4 183.4v23c0 1.8 1.5 3.3 3.3 3.3h13.8c1.8 0 3.3-1.5 3.3-3.3v-23z"/><path fill="url(#l)" d="m251.9 184.4v22.2c0 1.3 1.1 2.4 2.4 2.4h14.5c1.3 0 2.4-1.1 2.4-2.4v-22.2h1v22.2c0 1.9-1.5 3.4-3.4 3.4h-14.5c-1.9 0-3.4-1.5-3.4-3.4v-22.2"/><path fill="url(#m)" d="m269.8 170h-16.4c-1.4 0-2.5 1.1-2.5 2.5v11.9h21.3v-11.9c0-1.4-1.1-2.5-2.4-2.5z"/><path fill="#fff" d="m263.1 175.7c-.3-.3-.7-.5-1.1-.6v1.9c1.3.5 1.8 1.1 1.8 2 0 1-.7 1.7-1.8 1.8v1h-.8v-1c-.7-.1-1.4-.4-2-.9l.6-.8c.4.4.9.7 1.4.8v-2c-1.2-.5-1.7-1-1.7-1.9 0-1 .7-1.6 1.7-1.8v-.6h.8v.6c.6.1 1.2.3 1.6.7zm-1.8 1.1v-1.6c-.5.1-.7.4-.7.8 0 .3.2.5.7.8zm.7 1.4v1.7c.5-.1.7-.4.7-.8 0-.4-.1-.6-.7-.9z"/><path fill="#ccc" d="m254.6 188.4h13.9v.9h-13.9z"/><path fill="#ccc" d="m254.6 191.1h13.9v.9h-13.9z"/><path fill="#ccc" d="m266 194.8h-11.4v-.9h13.9v.9z"/><path fill="#ccc" d="m254.6 196.6h13.9v.9h-13.9z"/><path fill="url(#n)" d="m267.8 205.4h-12.6c-.4 0-.6-.3-.6-.6v-4.3c0-.4.3-.6.6-.6h12.6c.4 0 .6.3.6.6v4.3c.1.3-.2.6-.6.6z"/><path fill="url(#o)" d="m66.8 52.3c0-1.6-.6-3.1-1.8-4.3l-16-16 17.3-17.3c1.1-1.1.3-3-1.3-3h-36.4l-16 16c-1.2 1.2-1.8 2.8-1.8 4.3 0 1.6.6 3.1 1.8 4.3l16 16-17.2 17.3c-1.1 1.1-.3 3 1.3 3h36.3l16-16c.3-.3.6-.6.8-1 .7-1 1-2.1 1-3.3z"/><path fill="url(#p)" d="m69.3 35.6-11.4-18.9c-.2-.4-.8-.4-1 0l-11.4 18.9c-.2.4 0 .9.5.9h7.3v35.5c0 .3.3.6.6.6h7.1c.3 0 .6-.3.6-.6v-35.5h7.3c.4 0 .7-.5.4-.9z"/><circle cx="29.7" cy="43.2" r="11.8" fill="url(#q)"/><path fill="#fff" d="m21.5 45.7c0-1.5-1.2-2.7-2.7-2.7h-4.9c-1.5 0-2.7 1.2-2.7 2.7v5.2c1.7 0 2.6.6 3.5 1.2s1.7 1.2 3.4 1.2 2.5-.6 3.4-1.2v7.1z"/><path fill="#f6f6f6" d="m18.1 53.2c-1.7 0-2.5-.6-3.4-1.2s-1.7-1.2-3.5-1.2v6.5c0 1.4 1.1 2.5 2.5 2.5h5.3c1.4 0 2.5-1.1 2.5-2.5v-5.3c-.9.7-1.7 1.2-3.4 1.2z"/><path fill="url(#r)" d="m18.9 60.5h-4.9c-1.9 0-3.4-1.5-3.4-3.4v-11.3c0-1.9 1.5-3.4 3.4-3.4h4.9c1.9 0 3.4 1.5 3.4 3.4v11.3c0 1.9-1.5 3.4-3.4 3.4zm-4.9-17.1c-1.3 0-2.4 1.1-2.4 2.4v11.3c0 1.3 1.1 2.4 2.4 2.4h4.9c1.3 0 2.4-1.1 2.4-2.4v-11.3c0-1.3-1.1-2.4-2.4-2.4z"/><path fill="#fff" d="m34.8 45.6c0-1.5-1.2-2.7-2.7-2.7h-4.9c-1.5 0-2.7 1.2-2.7 2.7v5.2c1.7 0 2.6.6 3.5 1.2s1.7 1.2 3.4 1.2 2.5-.6 3.4-1.2v7z"/><path fill="#f6f6f6" d="m31.4 53.2c-1.7 0-2.5-.6-3.4-1.2s-1.7-1.2-3.5-1.2v6.5c0 1.4 1.1 2.4 2.5 2.4h5.3c1.4 0 2.5-1.1 2.5-2.4v-5.3c-.9.6-1.7 1.2-3.4 1.2z"/><path fill="url(#s)" d="m32.1 60.4h-4.9c-1.9 0-3.4-1.5-3.4-3.4v-11.2c0-1.9 1.5-3.4 3.4-3.4h4.9c1.9 0 3.4 1.5 3.4 3.4v11.2c0 1.9-1.5 3.4-3.4 3.4zm-4.9-17c-1.3 0-2.4 1.1-2.4 2.4v11.2c0 1.3 1.1 2.4 2.4 2.4h4.9c1.3 0 2.4-1.1 2.4-2.4v-11.2c0-1.3-1.1-2.4-2.4-2.4z"/><path fill="#fff" d="m48 45.6c0-1.5-1.2-2.7-2.7-2.7h-4.9c-1.5 0-2.7 1.2-2.7 2.7v5.2c1.7 0 2.6.6 3.5 1.2s1.7 1.2 3.4 1.2 2.5-.6 3.4-1.2v7z"/><path fill="#f6f6f6" d="m44.6 53.2c-1.7 0-2.5-.6-3.4-1.2s-1.7-1.2-3.5-1.2v6.5c0 1.4 1.1 2.4 2.5 2.4h5.3c1.4 0 2.5-1.1 2.5-2.4v-5.3c-.9.6-1.7 1.2-3.4 1.2z"/><path fill="#fb6874" d="m15.8 49.2-1.5.4-.3-1.6 2.4-.7h1.3v8.5h-1.8v-6.6z"/><path fill="#fb6874" d="m26.6 54.1 2.8-2.3c.3-.2.5-.4.7-.6s.3-.3.4-.5.2-.3.3-.5c.1-.1.1-.3.1-.5 0-.4-.1-.6-.3-.8s-.5-.3-.8-.3-.6.1-.9.3-.5.5-.8.9l-1.3-1c.2-.3.4-.5.6-.7s.4-.4.7-.5c.2-.1.5-.3.8-.3.3-.1.6-.1 1-.1s.8.1 1.2.2.7.3.9.5c.3.2.4.5.6.8.1.3.2.7.2 1.1 0 .4 0 .7-.1.9-.1.3-.2.5-.4.8-.2.2-.4.5-.7.7s-.6.5-1 .8l-1.4 1.1h3.7v1.6h-6.2v-1.6z"/><path fill="#fb6874" d="m43.9 44.4-2 2 .3 1.2h.8c.5 0 .9.1 1.2.3s.4.4.4.8c0 .3-.1.6-.3.7-.2.2-.5.3-.9.3s-.8-.1-1.1-.3-.6-.4-.9-.8l-1.3 1.2c.4.4.8.8 1.3 1.1s1.2.4 1.9.4c.5 0 .9-.1 1.3-.2s.7-.3 1-.6c.3-.2.5-.5.6-.9.1-.3.2-.7.2-1.1 0-.4-.1-.7-.2-1s-.3-.5-.5-.7-.5-.3-.7-.4c-.3-.1-.5-.2-.8-.2l2.1-2v-.9c-.3-.1-.6-.2-1-.2h-4.7v1.3z"/><path fill="#fb6874" d="m45.8 58.8v-5.1h-1.6l-4.6 5.3.3 1.2h.3 5.3c.5 0 1-.1 1.3-.4v-1.1h-1zm-1.8 0h-2.2l2.2-2.6z"/><path fill="url(#t)" d="m45.4 60.4h-4.9c-1.9 0-3.4-1.5-3.4-3.4v-11.2c0-1.9 1.5-3.4 3.4-3.4h4.9c1.9 0 3.4 1.5 3.4 3.4v11.2c0 1.9-1.5 3.4-3.4 3.4zm-4.9-17c-1.3 0-2.4 1.1-2.4 2.4v11.2c0 1.3 1.1 2.4 2.4 2.4h4.9c1.3 0 2.4-1.1 2.4-2.4v-11.2c0-1.3-1.1-2.4-2.4-2.4z"/></svg>