<svg xmlns="http://www.w3.org/2000/svg" xmlns:xlink="http://www.w3.org/1999/xlink" enable-background="new 0 0 75 83.8" viewBox="0 0 75 83.8"><linearGradient id="a" x1="45.769" x2="45.769" y1="48.06" y2="24.394" gradientTransform="matrix(1 -.00853353 .00853353 1 8.7293 -5.296)" gradientUnits="userSpaceOnUse"><stop offset="0" stop-color="#ab5af1"/><stop offset="1" stop-color="#749cfc"/></linearGradient><linearGradient id="b" x1="29.029" x2="48.029" y1="11.506" y2="70.506" gradientUnits="userSpaceOnUse"><stop offset="0" stop-color="#6bf9eb"/><stop offset=".516" stop-color="#30a2e3"/><stop offset="1" stop-color="#0e48b5"/></linearGradient><linearGradient id="c"><stop offset="0" stop-color="#f2f2f2"/><stop offset="1" stop-color="#b3b3b3"/></linearGradient><linearGradient id="d" x1="49.023" x2="31.678" y1="35.008" y2="35.008" gradientUnits="userSpaceOnUse" xlink:href="#c"/><linearGradient id="e"><stop offset="0" stop-color="#fb6874"/><stop offset="1" stop-color="#fc7d76"/></linearGradient><linearGradient id="f" x1="31.703" x2="32.145" y1="25.854" y2="27.227" gradientUnits="userSpaceOnUse" xlink:href="#e"/><linearGradient id="g" x1="29.312" x2="29.312" y1="10.257" y2="18.987" gradientUnits="userSpaceOnUse" xlink:href="#c"/><linearGradient id="h" x1="34.537" x2="34.537" y1="10.257" y2="18.987" gradientUnits="userSpaceOnUse" xlink:href="#c"/><linearGradient id="i" x1="30.733" x2="33.637" y1="17.492" y2="26.508" gradientUnits="userSpaceOnUse" xlink:href="#e"/><linearGradient id="j" x1="8.584" x2="55.265" y1="52.748" y2="52.748" gradientUnits="userSpaceOnUse"><stop offset=".001" stop-color="#fb993c"/><stop offset=".999" stop-color="#ffc58e"/></linearGradient><linearGradient id="k" x1="14.825" x2="32.169" y1="35.008" y2="35.008" gradientUnits="userSpaceOnUse" xlink:href="#c"/><circle cx="54.8" cy="30.5" r="11.8" fill="url(#a)"/><path fill="url(#b)" d="m66.9 52.3c0-1.6-.6-3.1-1.8-4.3l-16-16 17.3-17.3c1.1-1.1.3-3-1.3-3h-36.4l-16 16c-1.2 1.2-1.8 2.8-1.8 4.3 0 1.6.6 3.1 1.8 4.3l16 16-17.3 17.3c-1.1 1.1-.3 3 1.3 3h36.4l16-16c.3-.3.6-.6.8-1 .6-1 1-2.1 1-3.3z"/><path fill="url(#d)" d="m48.8 40.3h-.1l-16.8-10c-.1-.1-.2-.2-.1-.3s.2-.2.3-.1l16.8 10c.1.1.2.2.1.3-.1 0-.1.1-.2.1z"/><circle cx="31.9" cy="19.4" r="2.8" fill="#fff"/><path fill="#fff" d="m32 31.3c-1 0-1.7-.7-1.7-1.5s.1-1 .9-1.9c.5-.5.4-1.1.4-1.1v-.2c0-.3.2-.5.5-.5s.5.2.5.5v.2s.1 1.1-.7 1.9c-.6.6-.6.6-.6 1.1 0 .4.4.5.7.5.2 0 .4 0 .5-.2s.1-.4.1-.8c-.1-.3.1-.5.4-.6s.5.1.6.4c.2.8 0 1.4-.2 1.6-.4.4-.9.6-1.4.6z"/><path fill="url(#f)" d="m32.8 27h-1.8c-.1 0-.2-.1-.2-.2v-.4c0-.1.1-.2.2-.2h1.8c.1 0 .2.1.2.2v.4c0 .1-.1.2-.2.2z"/><path fill="url(#g)" d="m29.3 18.4c-.2 0-.3-.1-.3-.3v-8.4c0-.2.1-.3.3-.3s.3.1.3.3v8.4c0 .2-.1.3-.3.3z"/><path fill="url(#h)" d="m34.5 18.4c-.2 0-.3-.1-.3-.3v-8.4c0-.2.1-.3.3-.3s.3.1.3.3v8.4c0 .2-.1.3-.3.3z"/><path fill="url(#i)" d="m35.6 20.4c.1-.5.2-1.1-.3-1.9-.2-.3-.3-.5-.3-.5h-2.7-.8-2.7s-.2.2-.3.5c-.5.8-.3 1.4-.2 1.8v.2c.1 1.1.5 3.2.6 4.2l.1.6c0 .5.4.8.8.8h4.2c.5 0 .8-.4.8-.8l.1-.6c.2-1 .5-3.1.6-4.2z"/><circle cx="31.9" cy="20.1" r="1" opacity=".3"/><path fill="url(#j)" d="m52.8 41.4h-1.6v-.8c0-.5-.4-.9-.9-.9h-3.3c-.5 0-.9.4-.9.9v.8h-28.3v-.8c0-.5-.4-.9-.9-.9h-3.3c-.5 0-.9.4-.9.9v.8h-1.6c-1.4 0-2.5 1.1-2.5 2.5v19.4c0 1.4 1.1 2.5 2.5 2.5h41.7c1.4 0 2.5-1.1 2.5-2.5v-19.4c0-1.3-1.1-2.5-2.5-2.5z"/><g fill="#fff"><path d="m11.4 44.4h8.6v18.5h-8.6z"/><path d="m22.2 44.4h8.6v18.5h-8.6z"/><path d="m33 44.4h8.6v18.5h-8.6z"/><path d="m43.9 44.4h8.6v18.5h-8.6z"/></g><path fill="url(#k)" d="m15.1 40.3c-.1 0-.2 0-.2-.1-.1-.1 0-.3.1-.3l16.8-10c.1-.1.3 0 .3.1.1.1 0 .3-.1.3l-16.8 10c0-.1-.1 0-.1 0z"/></svg>