<svg xmlns="http://www.w3.org/2000/svg" xmlns:xlink="http://www.w3.org/1999/xlink" enable-background="new 0 0 75 83.8" viewBox="0 0 75 83.8"><linearGradient id="a" x1="50.491" x2="50.491" y1="42.061" y2="66.061" gradientTransform="matrix(1 0 0 -1 0 86)" gradientUnits="userSpaceOnUse"><stop offset="0" stop-color="#0e48b5"/><stop offset="1" stop-color="#30a2e3"/></linearGradient><linearGradient id="b" x1="28.448" x2="47.448" y1="74.515" y2="15.515" gradientTransform="matrix(1 0 0 -1 0 86)" gradientUnits="userSpaceOnUse"><stop offset="0" stop-color="#fb6874"/><stop offset="1" stop-color="#f56fae"/></linearGradient><clipPath id="c"><path d="m48.3 63.2h-36.5c-1.6 0-2.9-1.3-2.9-2.9v-36.5c0-1.6 1.3-2.9 2.9-2.9h36.5c1.6 0 2.9 1.3 2.9 2.9v36.5c0 1.6-1.3 2.9-2.9 2.9z"/></clipPath><linearGradient id="d" x1="30.041" x2="30.041" y1="22.3" y2="65.6" gradientTransform="matrix(1 0 0 -1 0 86)" gradientUnits="userSpaceOnUse"><stop offset="0" stop-color="#e1e9fe"/><stop offset="1" stop-color="#dcf3fd"/></linearGradient><linearGradient id="e" x1="29.991" x2="29.991" y1="26.2" y2="61.6" gradientTransform="matrix(1 0 0 -1 0 86)" gradientUnits="userSpaceOnUse"><stop offset="0" stop-color="#ab5af1"/><stop offset="1" stop-color="#749cfc"/></linearGradient><linearGradient id="f" x1="22.291" x2="22.291" y1="46.342" y2="54.62" gradientTransform="matrix(1 0 0 -1 0 86)" gradientUnits="userSpaceOnUse"><stop offset=".001" stop-color="#fcac60"/><stop offset=".999" stop-color="#ffc58e"/></linearGradient><linearGradient id="g" x1="37.141" x2="37.141" y1="26.228" y2="61.655" gradientTransform="matrix(1 0 0 -1 0 86)" gradientUnits="userSpaceOnUse"><stop offset="0" stop-color="#91d9f9"/><stop offset="1" stop-color="#30a2e3"/></linearGradient><linearGradient id="h"><stop offset="0" stop-color="#00abc7"/><stop offset="1" stop-color="#6bf9eb"/></linearGradient><linearGradient id="i" x1="37.141" x2="37.141" y1="6.312" y2="47.293" gradientTransform="matrix(1 0 0 -1 0 86)" gradientUnits="userSpaceOnUse" xlink:href="#h"/><linearGradient id="j" x1="26.641" x2="26.641" y1="6.312" y2="47.293" gradientTransform="matrix(1 0 0 -1 0 86)" gradientUnits="userSpaceOnUse" xlink:href="#h"/><circle cx="50.5" cy="31.9" r="12" fill="url(#a)"/><path fill="url(#b)" d="m66.3 52.2c0-1.6-.6-3.1-1.8-4.3l-16-16 17.3-17.3c1.1-1.1.3-3-1.3-3h-36.4l-16 16c-1.2 1.2-1.8 2.8-1.8 4.3 0 1.6.6 3.1 1.8 4.3l16 16-17.3 17.3c-1.1 1.1-.3 3 1.3 3h36.4l16-16c.3-.3.6-.6.8-1 .6-.9 1-2.1 1-3.3z"/><g fill="#fff"><path d="m10.6 20.9-1.7 1.7v-1.7z" clip-path="url(#c)"/><path d="m51.2 61.5-1.7 1.7h-40.6v-40.6l1.7-1.7h40.6z" clip-path="url(#c)"/><path d="m49.5 63.2 1.7-1.7v1.7z" clip-path="url(#c)"/></g><path fill="url(#d)" d="m48.3 63.7h-36.5c-1.9 0-3.4-1.5-3.4-3.4v-36.5c0-1.9 1.5-3.4 3.4-3.4h36.5c1.9 0 3.4 1.5 3.4 3.4v36.5c0 1.9-1.5 3.4-3.4 3.4zm-36.5-42.3c-1.3 0-2.4 1.1-2.4 2.4v36.5c0 1.3 1.1 2.4 2.4 2.4h36.5c1.3 0 2.4-1.1 2.4-2.4v-36.5c0-1.3-1.1-2.4-2.4-2.4z"/><path fill="url(#e)" d="m47 59.8h-34c-.4 0-.7-.3-.7-.7v-34c0-.4.3-.7.7-.7h34c.4 0 .7.3.7.7v34c0 .4-.3.7-.7.7z"/><circle cx="22.3" cy="35.5" r="4.1" fill="url(#f)"/><path fill="#6bf9eb" d="m13 59.8h4.6l9-11.4-3.4-4.3c-.6-.6-1.5-.6-2.1 0l-8.9 11.2v3.7c.1.5.4.8.8.8z"/><path fill="url(#g)" d="m34 39.1-7.4 9.3 9 11.4h11.4c.4 0 .7-.3.7-.7v-5.3l-11.6-14.7c-.6-.5-1.5-.5-2.1 0z"/><path fill="url(#i)" d="m34 39.1-7.4 9.3 9 11.4h11.4c.4 0 .7-.3.7-.7v-5.3l-11.6-14.7c-.6-.5-1.5-.5-2.1 0z"/><path fill="#6bf9eb" d="m17.6 59.8h18.1l-9-11.4z"/><path fill="url(#j)" d="m17.6 59.8h18.1l-9-11.4z"/></svg>