<svg xmlns="http://www.w3.org/2000/svg" xmlns:xlink="http://www.w3.org/1999/xlink" enable-background="new 0 0 75 83.8" viewBox="0 0 75 83.8"><linearGradient id="a" x1="251.659" x2="270.659" y1="159.563" y2="218.563" gradientUnits="userSpaceOnUse"><stop offset="0" stop-color="#0f39c3"/><stop offset="1" stop-color="#fa96d3"/></linearGradient><linearGradient id="b"><stop offset="0" stop-color="#fb6874"/><stop offset="1" stop-color="#f56fae"/></linearGradient><linearGradient id="c" x1="227.112" x2="227.112" y1="219.19" y2="195.524" gradientTransform="matrix(1 -.00853353 .00853353 1 8.7293 -5.296)" gradientUnits="userSpaceOnUse" xlink:href="#b"/><linearGradient id="d"><stop offset="0" stop-color="#f2f2f2"/><stop offset="1" stop-color="#b3b3b3"/></linearGradient><linearGradient id="e" x1="269.087" x2="289.42" y1="184.576" y2="204.564" gradientUnits="userSpaceOnUse" xlink:href="#d"/><linearGradient id="f"><stop offset="0" stop-color="#30a2e3"/><stop offset="1" stop-color="#2fddd1"/></linearGradient><linearGradient id="g" x1="271.163" x2="289.358" y1="178.848" y2="178.848" gradientUnits="userSpaceOnUse" xlink:href="#f"/><linearGradient id="h"><stop offset=".001" stop-color="#fb993c"/><stop offset=".999" stop-color="#ffc58e"/></linearGradient><linearGradient id="i" x1="274.368" x2="286.154" y1="199.962" y2="199.962" gradientUnits="userSpaceOnUse" xlink:href="#h"/><linearGradient id="j" x1="233.921" x2="254.762" y1="184.326" y2="204.814" gradientUnits="userSpaceOnUse" xlink:href="#d"/><linearGradient id="k" x1="233.751" x2="251.946" y1="178.848" y2="178.848" gradientUnits="userSpaceOnUse" xlink:href="#f"/><linearGradient id="l" x1="236.955" x2="248.742" y1="199.962" y2="199.962" gradientUnits="userSpaceOnUse" xlink:href="#h"/><linearGradient id="m" x1="250.218" x2="272.874" y1="185.123" y2="207.396" gradientUnits="userSpaceOnUse" xlink:href="#d"/><linearGradient id="n" x1="250.884" x2="272.226" y1="177.231" y2="177.231" gradientUnits="userSpaceOnUse" xlink:href="#f"/><linearGradient id="o" x1="254.642" x2="268.467" y1="202.583" y2="202.583" gradientUnits="userSpaceOnUse" xlink:href="#h"/><linearGradient id="p" x1="28.895" x2="47.895" y1="11.483" y2="70.483" gradientUnits="userSpaceOnUse"><stop offset="0" stop-color="#6bf9eb"/><stop offset=".516" stop-color="#30a2e3"/><stop offset="1" stop-color="#0e48b5"/></linearGradient><linearGradient id="q" x1="48.1" x2="48.1" y1="72.556" y2="48.89" gradientTransform="matrix(1 -.00853353 .00853353 1 8.7293 -5.296)" gradientUnits="userSpaceOnUse" xlink:href="#h"/><linearGradient id="r" x1="14.746" x2="14.746" y1="57.262" y2="24.912" gradientUnits="userSpaceOnUse" xlink:href="#b"/><linearGradient id="s" x1="38.746" x2="38.746" y1="57.262" y2="24.912" gradientUnits="userSpaceOnUse" xlink:href="#b"/><linearGradient id="t" x1="62.746" x2="62.746" y1="57.262" y2="24.912" gradientUnits="userSpaceOnUse" xlink:href="#b"/><path fill="url(#a)" d="m289.5 200.3c0-1.6-.6-3.1-1.8-4.3l-16-16 17.3-17.3c1.1-1.1.3-3-1.3-3h-36.4l-16 16c-1.2 1.2-1.8 2.8-1.8 4.3 0 1.6.6 3.1 1.8 4.3l16 16-17.3 17.3c-1.1 1.1-.3 3 1.3 3h36.4l16-16c.3-.3.6-.6.8-1 .7-.9 1-2.1 1-3.3z"/><circle cx="237.6" cy="200.1" r="11.8" fill="url(#c)"/><path fill="#fff" d="m269.6 183.6v19.6c0 1.5 1.2 2.8 2.8 2.8h13.7c1.5 0 2.8-1.2 2.8-2.8v-19.6z"/><path fill="url(#e)" d="m270 184.5v18.9c0 1.1.9 2.1 2.1 2.1h14.4c1.1 0 2.1-.9 2.1-2.1v-18.9h.9v18.9c0 1.6-1.3 2.9-2.9 2.9h-14.4c-1.6 0-2.9-1.3-2.9-2.9v-18.9"/><path fill="url(#g)" d="m287.3 173.2h-14c-1.2 0-2.1.9-2.1 2.1v9.2h18.2v-9.2c0-1.2-1-2.1-2.1-2.1z"/><path fill="#fff" d="m281.6 177.1c-.3-.2-.6-.4-.9-.5v1.6c1.1.4 1.5.9 1.5 1.7 0 .8-.6 1.4-1.5 1.5v.8h-.7v-.8c-.6-.1-1.2-.3-1.7-.8l.5-.7c.4.3.7.6 1.2.6v-1.5c-1-.4-1.5-.8-1.5-1.7 0-.8.6-1.4 1.5-1.5v-.5h.6v.5c.5.1 1 .3 1.4.6zm-1.6.9v-1.4c-.4.1-.6.3-.6.7.1.2.2.4.6.7zm.7 1.2v1.5c.4-.1.6-.3.6-.7 0-.4-.2-.6-.6-.8z"/><g fill="#ccc"><path d="m274.3 187.9h11.8v.8h-11.8z"/><path d="m274.3 190.2h11.8v.8h-11.8z"/><path d="m284 193.3h-9.7v-.8h11.9v.8z"/><path d="m274.3 194.9h11.8v.8h-11.8z"/></g><path fill="url(#i)" d="m285.6 202.3h-10.7c-.3 0-.5-.2-.5-.5v-3.7c0-.3.2-.5.5-.5h10.7c.3 0 .5.2.5.5v3.7c.1.3-.2.5-.5.5z"/><path fill="#fff" d="m234.2 183.6v19.6c0 1.5 1.2 2.8 2.8 2.8h14.7c1.5 0 2.8-1.2 2.8-2.8v-19.6z"/><path fill="url(#j)" d="m234.6 184.5v18.9c0 1.1.9 2.1 2.1 2.1h15.3c1.1 0 2.1-.9 2.1-2.1v-18.9h.9v18.9c0 1.6-1.3 2.9-2.9 2.9h-15.4c-1.6 0-2.9-1.3-2.9-2.9v-18.9"/><path fill="url(#k)" d="m249.8 173.2h-14c-1.2 0-2.1.9-2.1 2.1v9.2h18.2v-9.2c0-1.2-.9-2.1-2.1-2.1z"/><path fill="#fff" d="m244.2 177.1c-.3-.2-.6-.4-.9-.5v1.6c1.1.4 1.5.9 1.5 1.7 0 .8-.6 1.4-1.5 1.5v.8h-.6v-.8c-.6-.1-1.2-.3-1.7-.8l.5-.7c.4.3.7.6 1.2.6v-1.5c-1-.4-1.5-.8-1.5-1.7 0-.8.6-1.4 1.5-1.5v-.5h.6v.5c.5.1 1 .3 1.4.6zm-1.6.9v-1.4c-.4.1-.6.3-.6.7.1.2.2.4.6.7zm.6 1.2v1.5c.4-.1.6-.3.6-.7.1-.4-.1-.6-.6-.8z"/><path fill="#ccc" d="m236.9 187.9h11.8v.8h-11.8z"/><path fill="#ccc" d="m236.9 190.2h11.8v.8h-11.8z"/><path fill="#ccc" d="m246.6 193.3h-9.7v-.8h11.9v.8z"/><path fill="#ccc" d="m236.9 194.9h11.8v.8h-11.8z"/><path fill="url(#l)" d="m248.2 202.3h-10.7c-.3 0-.5-.2-.5-.5v-3.7c0-.3.2-.5.5-.5h10.7c.3 0 .5.2.5.5v3.7c0 .3-.2.5-.5.5z"/><path fill="#fff" d="m251.4 183.4v23c0 1.8 1.5 3.3 3.3 3.3h13.8c1.8 0 3.3-1.5 3.3-3.3v-23z"/><path fill="url(#m)" d="m251.9 184.4v22.2c0 1.3 1.1 2.4 2.4 2.4h14.5c1.3 0 2.4-1.1 2.4-2.4v-22.2h1v22.2c0 1.9-1.5 3.4-3.4 3.4h-14.5c-1.9 0-3.4-1.5-3.4-3.4v-22.2"/><path fill="url(#n)" d="m269.8 170h-16.4c-1.4 0-2.5 1.1-2.5 2.5v11.9h21.3v-11.9c0-1.4-1.1-2.5-2.4-2.5z"/><path fill="#fff" d="m263.1 175.7c-.3-.3-.7-.5-1.1-.6v1.9c1.3.5 1.8 1.1 1.8 2 0 1-.7 1.7-1.8 1.8v1h-.8v-1c-.7-.1-1.4-.4-2-.9l.6-.8c.4.4.9.7 1.4.8v-2c-1.2-.5-1.7-1-1.7-1.9 0-1 .7-1.6 1.7-1.8v-.6h.8v.6c.6.1 1.2.3 1.6.7zm-1.8 1.1v-1.6c-.5.1-.7.4-.7.8 0 .3.2.5.7.8zm.7 1.4v1.7c.5-.1.7-.4.7-.8 0-.4-.1-.6-.7-.9z"/><path fill="#ccc" d="m254.6 188.4h13.9v.9h-13.9z"/><path fill="#ccc" d="m254.6 191.1h13.9v.9h-13.9z"/><path fill="#ccc" d="m266 194.8h-11.4v-.9h13.9v.9z"/><path fill="#ccc" d="m254.6 196.6h13.9v.9h-13.9z"/><path fill="url(#o)" d="m267.8 205.4h-12.6c-.4 0-.6-.3-.6-.6v-4.3c0-.4.3-.6.6-.6h12.6c.4 0 .6.3.6.6v4.3c.1.3-.2.6-.6.6z"/><path fill="url(#p)" d="m66.7 52.3c0-1.6-.6-3.1-1.8-4.3l-16-16 17.3-17.3c1.1-1.1.3-3-1.3-3h-36.3l-16 16c-1.2 1.2-1.8 2.8-1.8 4.3 0 1.6.6 3.1 1.8 4.3l16 16-17.3 17.3c-1.1 1.1-.3 3 1.3 3h36.4l16-16c.3-.3.6-.6.8-1 .6-1 .9-2.2.9-3.3z"/><circle cx="57.3" cy="55" r="11.8" fill="url(#q)"/><path fill="url(#r)" d="m6.5 24.9c-1.1 0-1.9 1.1-1.9 2.5v27.4c0 1.4.9 2.5 1.9 2.5h16.5c1.1 0 1.9-1.1 1.9-2.5v-27.4c0-1.4-.9-2.5-1.9-2.5z"/><circle cx="14.7" cy="36.4" r="6.6" fill="#fff"/><path fill="#749cfc" d="m13.3 38.6c-.3 0-.6-.1-.9-.2s-.5-.3-.7-.5-.3-.4-.4-.7-.1-.6-.1-.9c0-.3 0-.6.2-.9.1-.3.2-.5.4-.7s.4-.4.7-.5.5-.2.9-.2c.3 0 .6.1.8.2.3.1.5.3.7.5s.3.4.4.7.2.6.2.9c0 .3-.1.6-.2.9s-.2.5-.4.7-.4.4-.7.5c-.3.2-.6.2-.9.2zm0-.8c.2 0 .3 0 .4-.1s.2-.2.3-.3.2-.3.2-.4.1-.4.1-.6c0-.2 0-.4-.1-.6s-.1-.3-.2-.4-.2-.2-.3-.3-.3-.1-.4-.1c-.2 0-.3 0-.4.1s-.2.2-.3.3-.2.3-.2.4c0 .2-.1.4-.1.6 0 .2 0 .4.1.6 0 .2.1.3.2.4s.2.2.3.3.3.1.4.1z"/><path fill="#749cfc" d="m17 35.1-.8.2-.2-.8 1.3-.4h.7v4.5h-1z"/><path fill="#fff" d="m9.3 45.9h10.9v.9h-10.9z"/><path fill="#fff" d="m7.6 48.7h14.3v.9h-14.3z"/><path fill="#fff" d="m9.3 51.4h10.9v.9h-10.9z"/><path fill="url(#s)" d="m30.5 24.9c-1.1 0-1.9 1.1-1.9 2.5v27.4c0 1.4.9 2.5 1.9 2.5h16.5c1.1 0 1.9-1.1 1.9-2.5v-27.4c0-1.4-.9-2.5-1.9-2.5z"/><circle cx="38.7" cy="36.4" r="6.6" fill="#fff"/><path fill="#749cfc" d="m36.7 38.6c-.3 0-.6-.1-.9-.2s-.5-.3-.7-.5-.3-.4-.4-.7-.1-.6-.1-.9c0-.3 0-.6.2-.9.1-.3.2-.5.4-.7s.4-.4.7-.5.5-.2.9-.2c.3 0 .6.1.8.2.3.1.5.3.7.5s.3.4.4.7.2.6.2.9c0 .3-.1.6-.2.9s-.2.5-.4.7-.4.4-.7.5c-.3.2-.6.2-.9.2zm0-.8c.2 0 .3 0 .4-.1l.3-.3c.1-.1.2-.3.2-.4s.1-.4.1-.6c0-.2 0-.4-.1-.6s-.1-.3-.2-.4-.2-.2-.3-.3-.3-.1-.4-.1c-.2 0-.3 0-.4.1s-.2.2-.3.3-.2.3-.2.4c0 .2-.1.4-.1.6 0 .2 0 .4.1.6 0 .2.1.3.2.4l.3.3s.2.1.4.1z"/><path fill="#749cfc" d="m39.4 37.8 1.6-1.2c.1-.1.3-.2.4-.3s.2-.2.3-.3.1-.2.1-.2c0-.1 0-.2 0-.3 0-.2-.1-.3-.2-.4s-.3-.1-.5-.1-.3 0-.5.1c-.1.1-.3.2-.5.5l-.6-.6c.1-.1.2-.3.4-.4.1-.1.2-.2.4-.3.1-.1.3-.1.5-.2.2 0 .4-.1.6-.1s.5 0 .7.1.4.2.5.3.2.3.3.4c.1.2.1.4.1.6 0 .2 0 .4-.1.5s-.1.3-.2.4-.2.3-.4.4-.3.3-.5.4l-.8.6h2v.8h-3.5v-.7z"/><path fill="#fff" d="m33.3 45.9h10.9v.9h-10.9z"/><path fill="#fff" d="m31.6 48.7h14.3v.9h-14.3z"/><path fill="#fff" d="m33.3 51.4h10.9v.9h-10.9z"/><path fill="url(#t)" d="m54.5 24.9c-1.1 0-1.9 1.1-1.9 2.5v27.4c0 1.4.9 2.5 1.9 2.5h16.5c1.1 0 1.9-1.1 1.9-2.5v-27.4c0-1.4-.9-2.5-1.9-2.5z"/><circle cx="62.7" cy="36.4" r="6.6" fill="#fff"/><path fill="#749cfc" d="m60.7 38.6c-.3 0-.6-.1-.9-.2s-.5-.3-.7-.5-.3-.4-.4-.7-.1-.6-.1-.9c0-.3 0-.6.2-.9.1-.3.2-.5.4-.7s.4-.4.7-.5.5-.2.9-.2c.3 0 .6.1.8.2.3.1.5.3.7.5s.3.4.4.7.2.6.2.9c0 .3-.1.6-.2.9s-.2.5-.4.7-.4.4-.7.5c-.3.2-.6.2-.9.2zm0-.8c.2 0 .3 0 .4-.1l.3-.3c.1-.1.2-.3.2-.4s.1-.4.1-.6c0-.2 0-.4-.1-.6s-.1-.3-.2-.4-.2-.2-.3-.3-.3-.1-.4-.1c-.2 0-.3 0-.4.1s-.2.2-.3.3-.2.3-.2.4c0 .2-.1.4-.1.6 0 .2 0 .4.1.6 0 .2.1.3.2.4l.3.3s.2.1.4.1z"/><path fill="#749cfc" d="m65.2 38.6c-.4 0-.8-.1-1.1-.2s-.5-.3-.7-.6l.7-.6c.2.2.3.3.5.4s.4.1.6.1.4 0 .5-.1.2-.2.2-.4c0-.2-.1-.3-.2-.4s-.4-.1-.7-.1h-.4l-.2-.7 1.1-1.1h-1.8v-.8h3.2v.7l-1.2 1.1c.2 0 .3.1.5.1.1.1.3.1.4.2s.2.2.3.4.1.3.1.5c0 .2 0 .4-.1.6s-.2.3-.3.5c-.1.1-.3.2-.5.3-.4.1-.7.1-.9.1z"/><path fill="#fff" d="m57.3 45.9h10.9v.9h-10.9z"/><path fill="#fff" d="m55.6 48.7h14.3v.9h-14.3z"/><path fill="#fff" d="m57.3 51.4h10.9v.9h-10.9z"/></svg>