<svg xmlns="http://www.w3.org/2000/svg" xmlns:xlink="http://www.w3.org/1999/xlink" enable-background="new 0 0 75 83.8" viewBox="0 0 75 83.8"><linearGradient id="a" x1="67.891" x2="67.891" y1="28.166" y2="51.826" gradientTransform="matrix(1 -.00855201 -.00855201 -1 -12.5665 72.2587)" gradientUnits="userSpaceOnUse"><stop offset="0" stop-color="#fb993c"/><stop offset="1" stop-color="#ffc58e"/></linearGradient><linearGradient id="b" x1="39.163" x2="58.163" y1="60.311" y2="1.311" gradientTransform="matrix(1 0 0 -1 -12.86 71.64)" gradientUnits="userSpaceOnUse"><stop offset="0" stop-color="#0e48b5"/><stop offset=".48" stop-color="#30a2e3"/><stop offset="1" stop-color="#6bf9eb"/></linearGradient><linearGradient id="c" x1="28.64" x2="69.356" y1="49.693" y2="9.667" gradientTransform="matrix(1 0 0 -1 -12.86 71.64)" gradientUnits="userSpaceOnUse"><stop offset="0" stop-color="#f2f2f2"/><stop offset="1" stop-color="#b3b3b3"/></linearGradient><linearGradient id="d" x1="47.633" x2="59.103" y1="29.735" y2="29.735" gradientTransform="matrix(1 0 0 -1 -12.86 71.64)" gradientUnits="userSpaceOnUse"><stop offset="0" stop-color="#f56fae"/><stop offset="1" stop-color="#fb6874"/></linearGradient><circle cx="55" cy="31.7" r="11.8" fill="url(#a)"/><path fill="url(#b)" d="m64.1 52c0-1.6-.7-3.2-1.8-4.3l-16-16 17.3-17.3c.7-.7.6-1.8-.1-2.5-.3-.3-.7-.5-1.2-.5h-36.3l-16 16c-2.4 2.4-2.4 6.2 0 8.6l16 16-17.3 17.4c-.7.7-.6 1.8.1 2.5.3.3.7.5 1.2.5h36.3l16-16c1.2-1.2 1.8-2.7 1.8-4.4z"/><path fill="#fff" d="m56.8 24.1c0-1.6-1.3-2.8-2.8-2.8h-35.7c-1.6 0-2.8 1.3-2.8 2.8v10.2c7 0 10.6 2.4 14 4.8s6.8 4.7 13.7 4.7 10.2-2.3 13.7-4.7v20.7z"/><path fill="#f6f6f6" d="m43.2 43.8c-6.8 0-10.2-2.3-13.7-4.7s-7-4.8-14-4.8v25.5c0 1.6 1.3 2.8 2.8 2.8h35.7c1.6 0 2.8-1.3 2.8-2.8v-20.7c-3.5 2.4-6.8 4.7-13.6 4.7z"/><path fill="url(#c)" d="m54 63.1h-35.7c-1.8 0-3.3-1.5-3.3-3.3v-35.7c0-1.8 1.5-3.3 3.3-3.3h35.7c1.8 0 3.3 1.5 3.3 3.3v35.7c0 1.8-1.5 3.3-3.3 3.3zm-35.7-41.3c-1.3 0-2.3 1.1-2.4 2.4v35.7c0 1.3 1.1 2.3 2.4 2.3h35.7c1.3 0 2.3-1.1 2.3-2.3v-35.8c0-1.3-1.1-2.3-2.3-2.4z"/><path fill="#fb6874" d="m39.1 48h-8.7l-2.1 6.1h-5.1l9-24.5h5l9 24.5h-5zm-7.4-3.6h6.2l-3.1-8.9z"/><path fill="url(#d)" d="m39.1 48h-4.3v-3.7h3.1l-3.1-8.9v-5.8h2.5l9 24.5h-5z"/><path fill="#fb6874" d="m48.5 57.6c-.3 0-.5-.2-.5-.5v-30.4c0-.3.2-.5.5-.5s.5.2.5.5v30.4c0 .3-.2.5-.5.5z"/></svg>