<svg xmlns="http://www.w3.org/2000/svg" xmlns:xlink="http://www.w3.org/1999/xlink" enable-background="new 0 0 75 83.8" viewBox="0 0 75 83.8"><linearGradient id="a"><stop offset="0" stop-color="#0f39c3"/><stop offset="1" stop-color="#fa96d3"/></linearGradient><linearGradient id="b" x1="28.538" x2="47.538" y1="11.612" y2="70.612" gradientUnits="userSpaceOnUse" xlink:href="#a"/><linearGradient id="c"><stop offset="0" stop-color="#fb6874"/><stop offset="1" stop-color="#f56fae"/></linearGradient><linearGradient id="d" x1="5.261" x2="5.261" y1="69.341" y2="45.675" gradientTransform="matrix(1 -.00853353 .00853353 1 8.7293 -5.296)" gradientUnits="userSpaceOnUse" xlink:href="#c"/><linearGradient id="e"><stop offset="0" stop-color="#f2f2f2"/><stop offset="1" stop-color="#b3b3b3"/></linearGradient><linearGradient id="f" x1="46.358" x2="66.691" y1="36.625" y2="56.614" gradientUnits="userSpaceOnUse" xlink:href="#e"/><linearGradient id="g"><stop offset="0" stop-color="#30a2e3"/><stop offset="1" stop-color="#2fddd1"/></linearGradient><linearGradient id="h" x1="47.919" x2="66.629" y1="30.897" y2="30.897" gradientUnits="userSpaceOnUse" xlink:href="#g"/><linearGradient id="i"><stop offset=".001" stop-color="#fb993c"/><stop offset=".999" stop-color="#ffc58e"/></linearGradient><linearGradient id="j" x1="51.639" x2="63.425" y1="52.011" y2="52.011" gradientUnits="userSpaceOnUse" xlink:href="#i"/><linearGradient id="k" x1="10.471" x2="31.312" y1="36.375" y2="56.864" gradientUnits="userSpaceOnUse" xlink:href="#e"/><linearGradient id="l" x1="10.301" x2="29.012" y1="30.897" y2="30.897" gradientUnits="userSpaceOnUse" xlink:href="#g"/><linearGradient id="m" x1="13.505" x2="25.292" y1="52.011" y2="52.011" gradientUnits="userSpaceOnUse" xlink:href="#i"/><linearGradient id="n" x1="27.129" x2="49.785" y1="37.172" y2="59.445" gradientUnits="userSpaceOnUse" xlink:href="#e"/><linearGradient id="o" x1="27.794" x2="49.136" y1="29.281" y2="29.281" gradientUnits="userSpaceOnUse" xlink:href="#g"/><linearGradient id="p" x1="31.553" x2="45.378" y1="54.633" y2="54.633" gradientUnits="userSpaceOnUse" xlink:href="#i"/><linearGradient id="q" x1="251.659" x2="270.659" y1="159.563" y2="218.563" gradientUnits="userSpaceOnUse" xlink:href="#a"/><linearGradient id="r" x1="227.112" x2="227.112" y1="219.19" y2="195.524" gradientTransform="matrix(1 -.00853353 .00853353 1 8.7293 -5.296)" gradientUnits="userSpaceOnUse" xlink:href="#c"/><linearGradient id="s" x1="269.087" x2="289.42" y1="184.576" y2="204.564" gradientUnits="userSpaceOnUse" xlink:href="#e"/><linearGradient id="t" x1="271.163" x2="289.358" y1="178.848" y2="178.848" gradientUnits="userSpaceOnUse" xlink:href="#g"/><linearGradient id="u" x1="274.368" x2="286.154" y1="199.962" y2="199.962" gradientUnits="userSpaceOnUse" xlink:href="#i"/><linearGradient id="v" x1="233.921" x2="254.762" y1="184.326" y2="204.814" gradientUnits="userSpaceOnUse" xlink:href="#e"/><linearGradient id="w" x1="233.751" x2="251.946" y1="178.848" y2="178.848" gradientUnits="userSpaceOnUse" xlink:href="#g"/><linearGradient id="x" x1="236.955" x2="248.742" y1="199.962" y2="199.962" gradientUnits="userSpaceOnUse" xlink:href="#i"/><linearGradient id="y" x1="250.218" x2="272.874" y1="185.123" y2="207.396" gradientUnits="userSpaceOnUse" xlink:href="#e"/><linearGradient id="z" x1="250.884" x2="272.226" y1="177.231" y2="177.231" gradientUnits="userSpaceOnUse" xlink:href="#g"/><linearGradient id="A" x1="254.642" x2="268.467" y1="202.583" y2="202.583" gradientUnits="userSpaceOnUse" xlink:href="#i"/><path fill="url(#b)" d="m66.4 52.4c0-1.6-.6-3.1-1.8-4.3l-16-16 17.3-17.3c1.1-1.1.3-3-1.3-3h-36.4l-16 16c-1.2 1.2-1.8 2.8-1.8 4.3 0 1.6.6 3.1 1.8 4.3l16 16-17.3 17.3c-1.1 1.1-.3 3 1.3 3h36.4l16-16c.3-.3.6-.6.8-1 .6-1 1-2.1 1-3.3z"/><circle cx="14.5" cy="52.2" r="11.8" fill="url(#d)"/><path fill="#fff" d="m46.9 35.7v19.6c0 1.5 1.2 2.8 2.8 2.8h13.7c1.5 0 2.8-1.2 2.8-2.8v-19.6z"/><path fill="url(#f)" d="m47.3 36.5v18.9c0 1.1.9 2.1 2.1 2.1h14.4c1.1 0 2.1-.9 2.1-2.1v-18.9h.9v18.9c0 1.6-1.3 2.9-2.9 2.9h-14.6c-1.6 0-2.9-1.3-2.9-2.9v-18.9"/><path fill="url(#h)" d="m64.5 25.3h-16.1c-1.2 0 0 .9 0 2.1v9.2h18.2v-9.2c0-1.2-.9-2.1-2.1-2.1z"/><path fill="#fff" d="m58.9 29.1c-.3-.2-.6-.4-.9-.5v1.6c1.1.4 1.5.9 1.5 1.7 0 .8-.6 1.4-1.5 1.5v.8h-.6v-.8c-.6-.1-1.2-.3-1.7-.8l.5-.7c.4.3.7.6 1.2.6v-1.5c-1-.4-1.5-.8-1.5-1.7 0-.8.6-1.4 1.5-1.5v-.5h.6v.5c.5.1 1 .3 1.4.6zm-1.6.9v-1.4c-.4.1-.6.3-.6.7 0 .3.2.5.6.7zm.6 1.2v1.5c.4-.1.6-.3.6-.7 0-.3-.1-.6-.6-.8z"/><g fill="#ccc"><path d="m51.6 39.9h11.8v.8h-11.8z"/><path d="m51.6 42.3h11.8v.8h-11.8z"/><path d="m61.3 45.4h-9.7v-.8h11.9v.8z"/><path d="m51.6 46.9h11.8v.8h-11.8z"/></g><path fill="url(#j)" d="m62.9 54.4h-10.7c-.3 0-.5-.2-.5-.5v-3.7c0-.3.2-.5.5-.5h10.7c.3 0 .5.2.5.5v3.7c0 .2-.2.5-.5.5z"/><path fill="#fff" d="m10.8 35.7v19.6c0 1.5 1.2 2.8 2.8 2.8h14.7c1.5 0 2.8-1.2 2.8-2.8v-19.6z"/><path fill="url(#k)" d="m11.2 36.5v18.9c0 1.1.9 2.1 2.1 2.1h15.4c1.1 0 2.1-.9 2.1-2.1v-18.9h.9v18.9c0 1.6-1.3 2.9-2.9 2.9h-15.6c-1.6 0-2.9-1.3-2.9-2.9v-18.9"/><path fill="url(#l)" d="m28.5 25.3h-16.1c-1.2 0-2.1.9-2.1 2.1v9.2h18.2v-9.2c0-1.2 1.2-2.1 0-2.1z"/><path fill="#fff" d="m20.7 29.1c-.3-.2-.6-.4-.9-.5v1.6c1.1.4 1.5.9 1.5 1.7 0 .8-.6 1.4-1.5 1.5v.8h-.6v-.8c-.6-.1-1.2-.3-1.7-.8l.5-.6c.4.3.7.6 1.2.6v-1.6c-1-.4-1.5-.8-1.5-1.7 0-.8.6-1.4 1.5-1.5v-.5h.6v.5c.5.1 1 .3 1.4.6zm-1.5.9v-1.4c-.4.1-.6.3-.6.7 0 .3.1.5.6.7zm.6 1.2v1.5c.4-.1.6-.3.6-.7 0-.3-.1-.6-.6-.8z"/><path fill="#ccc" d="m13.5 39.9h11.8v.8h-11.8z"/><path fill="#ccc" d="m13.5 42.3h11.8v.8h-11.8z"/><path fill="#ccc" d="m23.1 45.4h-9.6v-.8h11.8v.8z"/><path fill="#ccc" d="m13.5 46.9h11.8v.8h-11.8z"/><path fill="url(#m)" d="m24.7 54.4h-10.7c-.3 0-.5-.2-.5-.5v-3.7c0-.3.2-.5.5-.5h10.7c.3 0 .5.2.5.5v3.7c.1.2-.2.5-.5.5z"/><path fill="#fff" d="m28.3 35.5v23c0 1.8 1.5 3.3 3.3 3.3h13.8c1.8 0 3.3-1.5 3.3-3.3v-23z"/><path fill="url(#n)" d="m28.8 36.5v22.2c0 1.3 1.1 2.4 2.4 2.4h14.5c1.3 0 2.4-1.1 2.4-2.4v-22.2h1v22.2c0 1.9-1.5 3.4-3.4 3.4h-14.5c-1.9 0-3.4-1.5-3.4-3.4v-22.2"/><path fill="url(#o)" d="m46.7 22.1h-16.4c-1.4 0-2.5 1.1-2.5 2.5v11.9h21.3v-12c0-1.3-1.1-2.4-2.4-2.4z"/><path fill="#fff" d="m40 27.8c-.3-.3-.7-.5-1.1-.6v1.9c1.3.5 1.8 1.1 1.8 2 0 1-.7 1.7-1.8 1.8v1h-.8v-1c-.7-.1-1.4-.4-2-.9l.6-.8c.4.4.9.7 1.4.8v-2c-1.2-.5-1.7-1-1.7-1.9 0-1 .7-1.6 1.7-1.8v-.6h.9v.6c.6.1 1.2.3 1.6.7zm-1.8 1v-1.6c-.5.1-.7.4-.7.8 0 .3.2.6.7.8zm.7 1.5v1.7c.5-.1.7-.4.7-.8.1-.4-.1-.7-.7-.9z"/><path fill="#ccc" d="m31.5 40.4h13.9v.9h-13.9z"/><path fill="#ccc" d="m31.5 43.2h13.9v.9h-13.9z"/><path fill="#ccc" d="m42.9 46.8h-11.4v-.9h13.9v.9z"/><path fill="#ccc" d="m31.5 48.7h13.9v.9h-13.9z"/><path fill="url(#p)" d="m44.7 57.4h-12.5c-.4 0-.6-.3-.6-.6v-4.3c0-.4.3-.6.6-.6h12.6c.4 0 .6.3.6.6v4.3c0 .3-.3.6-.7.6z"/><path fill="url(#q)" d="m289.5 200.3c0-1.6-.6-3.1-1.8-4.3l-16-16 17.3-17.3c1.1-1.1.3-3-1.3-3h-36.4l-16 16c-1.2 1.2-1.8 2.8-1.8 4.3 0 1.6.6 3.1 1.8 4.3l16 16-17.3 17.3c-1.1 1.1-.3 3 1.3 3h36.4l16-16c.3-.3.6-.6.8-1 .7-.9 1-2.1 1-3.3z"/><circle cx="237.6" cy="200.1" r="11.8" fill="url(#r)"/><path fill="#fff" d="m269.6 183.6v19.6c0 1.5 1.2 2.8 2.8 2.8h13.7c1.5 0 2.8-1.2 2.8-2.8v-19.6z"/><path fill="url(#s)" d="m270 184.5v18.9c0 1.1.9 2.1 2.1 2.1h14.4c1.1 0 2.1-.9 2.1-2.1v-18.9h.9v18.9c0 1.6-1.3 2.9-2.9 2.9h-14.4c-1.6 0-2.9-1.3-2.9-2.9v-18.9"/><path fill="url(#t)" d="m287.3 173.2h-14c-1.2 0-2.1.9-2.1 2.1v9.2h18.2v-9.2c0-1.2-1-2.1-2.1-2.1z"/><path fill="#fff" d="m281.6 177.1c-.3-.2-.6-.4-.9-.5v1.6c1.1.4 1.5.9 1.5 1.7 0 .8-.6 1.4-1.5 1.5v.8h-.7v-.8c-.6-.1-1.2-.3-1.7-.8l.5-.7c.4.3.7.6 1.2.6v-1.5c-1-.4-1.5-.8-1.5-1.7 0-.8.6-1.4 1.5-1.5v-.5h.6v.5c.5.1 1 .3 1.4.6zm-1.6.9v-1.4c-.4.1-.6.3-.6.7.1.2.2.4.6.7zm.7 1.2v1.5c.4-.1.6-.3.6-.7 0-.4-.2-.6-.6-.8z"/><path fill="#ccc" d="m274.3 187.9h11.8v.8h-11.8z"/><path fill="#ccc" d="m274.3 190.2h11.8v.8h-11.8z"/><path fill="#ccc" d="m284 193.3h-9.7v-.8h11.9v.8z"/><path fill="#ccc" d="m274.3 194.9h11.8v.8h-11.8z"/><path fill="url(#u)" d="m285.6 202.3h-10.7c-.3 0-.5-.2-.5-.5v-3.7c0-.3.2-.5.5-.5h10.7c.3 0 .5.2.5.5v3.7c.1.3-.2.5-.5.5z"/><path fill="#fff" d="m234.2 183.6v19.6c0 1.5 1.2 2.8 2.8 2.8h14.7c1.5 0 2.8-1.2 2.8-2.8v-19.6z"/><path fill="url(#v)" d="m234.6 184.5v18.9c0 1.1.9 2.1 2.1 2.1h15.3c1.1 0 2.1-.9 2.1-2.1v-18.9h.9v18.9c0 1.6-1.3 2.9-2.9 2.9h-15.4c-1.6 0-2.9-1.3-2.9-2.9v-18.9"/><path fill="url(#w)" d="m249.8 173.2h-14c-1.2 0-2.1.9-2.1 2.1v9.2h18.2v-9.2c0-1.2-.9-2.1-2.1-2.1z"/><path fill="#fff" d="m244.2 177.1c-.3-.2-.6-.4-.9-.5v1.6c1.1.4 1.5.9 1.5 1.7 0 .8-.6 1.4-1.5 1.5v.8h-.6v-.8c-.6-.1-1.2-.3-1.7-.8l.5-.7c.4.3.7.6 1.2.6v-1.5c-1-.4-1.5-.8-1.5-1.7 0-.8.6-1.4 1.5-1.5v-.5h.6v.5c.5.1 1 .3 1.4.6zm-1.6.9v-1.4c-.4.1-.6.3-.6.7.1.2.2.4.6.7zm.6 1.2v1.5c.4-.1.6-.3.6-.7.1-.4-.1-.6-.6-.8z"/><path fill="#ccc" d="m236.9 187.9h11.8v.8h-11.8z"/><path fill="#ccc" d="m236.9 190.2h11.8v.8h-11.8z"/><path fill="#ccc" d="m246.6 193.3h-9.7v-.8h11.9v.8z"/><path fill="#ccc" d="m236.9 194.9h11.8v.8h-11.8z"/><path fill="url(#x)" d="m248.2 202.3h-10.7c-.3 0-.5-.2-.5-.5v-3.7c0-.3.2-.5.5-.5h10.7c.3 0 .5.2.5.5v3.7c0 .3-.2.5-.5.5z"/><path fill="#fff" d="m251.4 183.4v23c0 1.8 1.5 3.3 3.3 3.3h13.8c1.8 0 3.3-1.5 3.3-3.3v-23z"/><path fill="url(#y)" d="m251.9 184.4v22.2c0 1.3 1.1 2.4 2.4 2.4h14.5c1.3 0 2.4-1.1 2.4-2.4v-22.2h1v22.2c0 1.9-1.5 3.4-3.4 3.4h-14.5c-1.9 0-3.4-1.5-3.4-3.4v-22.2"/><path fill="url(#z)" d="m269.8 170h-16.4c-1.4 0-2.5 1.1-2.5 2.5v11.9h21.3v-11.9c0-1.4-1.1-2.5-2.4-2.5z"/><path fill="#fff" d="m263.1 175.7c-.3-.3-.7-.5-1.1-.6v1.9c1.3.5 1.8 1.1 1.8 2 0 1-.7 1.7-1.8 1.8v1h-.8v-1c-.7-.1-1.4-.4-2-.9l.6-.8c.4.4.9.7 1.4.8v-2c-1.2-.5-1.7-1-1.7-1.9 0-1 .7-1.6 1.7-1.8v-.6h.8v.6c.6.1 1.2.3 1.6.7zm-1.8 1.1v-1.6c-.5.1-.7.4-.7.8 0 .3.2.5.7.8zm.7 1.4v1.7c.5-.1.7-.4.7-.8 0-.4-.1-.6-.7-.9z"/><path fill="#ccc" d="m254.6 188.4h13.9v.9h-13.9z"/><path fill="#ccc" d="m254.6 191.1h13.9v.9h-13.9z"/><path fill="#ccc" d="m266 194.8h-11.4v-.9h13.9v.9z"/><path fill="#ccc" d="m254.6 196.6h13.9v.9h-13.9z"/><path fill="url(#A)" d="m267.8 205.4h-12.6c-.4 0-.6-.3-.6-.6v-4.3c0-.4.3-.6.6-.6h12.6c.4 0 .6.3.6.6v4.3c.1.3-.2.6-.6.6z"/></svg>