<svg xmlns="http://www.w3.org/2000/svg" xmlns:xlink="http://www.w3.org/1999/xlink" enable-background="new 0 0 75 83.8" viewBox="0 0 75 83.8"><linearGradient id="a" x1="31.92" x2="51.563" y1="61.263" y2=".258" gradientTransform="matrix(1 0 0 -1 -.9 72.66)" gradientUnits="userSpaceOnUse"><stop offset="0" stop-color="#0e48b5"/><stop offset=".48" stop-color="#30a2e3"/><stop offset="1" stop-color="#6bf9eb"/></linearGradient><linearGradient id="b" x1="3.732" x2="27.332" y1="18.152" y2="18.152" gradientTransform="matrix(1 0 0 -1 -.901 72.6561)" gradientUnits="userSpaceOnUse"><stop offset="0" stop-color="#fb993c"/><stop offset="1" stop-color="#ffc58e"/></linearGradient><linearGradient id="c"><stop offset="0" stop-color="#30a2e3"/><stop offset="1" stop-color="#2fddd1"/></linearGradient><linearGradient id="d" x1="37.157" x2="37.157" y1="10.905" y2="54.135" gradientTransform="matrix(1 0 0 -1 -.9 72.66)" gradientUnits="userSpaceOnUse" xlink:href="#c"/><linearGradient id="e" x1="16.369" x2="57.954" y1="52.957" y2="12.083" gradientTransform="matrix(1 0 0 -1 -.9 72.66)" gradientUnits="userSpaceOnUse"><stop offset="0" stop-color="#f2f2f2"/><stop offset="1" stop-color="#b3b3b3"/></linearGradient><linearGradient id="f" x1="37.157" x2="37.157" y1="30.354" y2="54.135" gradientTransform="matrix(1 0 0 -1 -.9 72.66)" gradientUnits="userSpaceOnUse"><stop offset="0" stop-color="#fc7d76"/><stop offset="1" stop-color="#fcac60"/></linearGradient><linearGradient id="g" x1="29.701" x2="42.842" y1="48.595" y2="48.715" gradientTransform="matrix(1 0 0 -1 0 84)" gradientUnits="userSpaceOnUse" xlink:href="#c"/><linearGradient id="h"><stop offset="0" stop-color="#f56fae"/><stop offset="1" stop-color="#fa96d3"/></linearGradient><linearGradient id="i" x1="24.046" x2="24.046" y1="27.505" y2="37.785" gradientTransform="matrix(1 0 0 -1 0 84)" gradientUnits="userSpaceOnUse" xlink:href="#h"/><linearGradient id="j" x1="36.266" x2="36.266" y1="27.505" y2="37.785" gradientTransform="matrix(1 0 0 -1 0 84)" gradientUnits="userSpaceOnUse" xlink:href="#h"/><linearGradient id="k" x1="48.486" x2="48.486" y1="27.505" y2="37.785" gradientTransform="matrix(1 0 0 -1 0 84)" gradientUnits="userSpaceOnUse" xlink:href="#h"/><linearGradient id="l" x1="48.606" x2="66.076" y1="50.9" y2="50.9" gradientTransform="matrix(1 0 0 -1 0 84)" gradientUnits="userSpaceOnUse" xlink:href="#c"/><linearGradient id="m"><stop offset="0" stop-color="#0f39c3"/><stop offset="1" stop-color="#fa96d3"/></linearGradient><linearGradient id="n" x1="54.606" x2="62.986" y1="40.695" y2="40.695" gradientTransform="matrix(1 0 0 -1 -.9 72.66)" gradientUnits="userSpaceOnUse" xlink:href="#m"/><linearGradient id="o" x1="56.806" x2="60.956" y1="46.655" y2="46.655" gradientTransform="matrix(1 0 0 -1 0 84)" gradientUnits="userSpaceOnUse" xlink:href="#m"/><linearGradient id="p" x1="48.766" x2="70.796" y1="41.781" y2="41.781" gradientTransform="matrix(1 0 0 -1 -.9 72.66)" gradientUnits="userSpaceOnUse" xlink:href="#m"/><linearGradient id="q" x1="69.066" x2="73.076" y1="47.091" y2="47.091" gradientTransform="matrix(1 0 0 -1 -.9 72.66)" gradientUnits="userSpaceOnUse" xlink:href="#m"/><path fill="url(#a)" d="m68.7 52c0-1.6-.7-3.2-1.8-4.3l-16-16 17.3-17.2c.7-.7.7-1.8 0-2.5-.3-.3-.8-.5-1.2-.5h-36.3l-16 16c-2.4 2.4-2.4 6.2 0 8.6l16 16-17.2 17.2c-.7.7-.7 1.8 0 2.5.3.3.8.5 1.2.5h36.3l16-16c1.1-1.1 1.8-2.7 1.7-4.3z"/><circle cx="14.6" cy="54.5" r="11.8" fill="url(#b)"/><path fill="#fff" d="m14.6 38.9v19.5c0 1.9 1.5 3.4 3.4 3.4h36.4c1.9 0 3.4-1.5 3.4-3.4v-19.5c-7 2.3-14.3 3.5-21.6 3.4-7.3.1-14.6-1.1-21.6-3.4z"/><path fill="url(#d)" d="m54.5 18.5h-36.5c-1.9 0-3.4 1.5-3.4 3.4v17c7 2.3 14.3 3.5 21.6 3.4 7.3 0 14.6-1.1 21.6-3.4v-17c.1-1.8-1.5-3.4-3.3-3.4z"/><path fill="url(#e)" d="m54.5 61.8h-36.5c-1.9 0-3.4-1.5-3.4-3.4v-36.5c0-1.9 1.5-3.4 3.4-3.4h36.4c1.9 0 3.4 1.5 3.4 3.4v36.4c.1 1.9-1.4 3.4-3.3 3.5zm-36.5-42.3c-1.3 0-2.4 1.1-2.4 2.4v36.4c0 1.3 1.1 2.4 2.4 2.4h36.4c1.3 0 2.4-1.1 2.4-2.4v-36.4c0-1.3-1.1-2.4-2.4-2.4z"/><path fill="url(#f)" d="m54.5 18.5h-36.5c-1.9 0-3.4 1.5-3.4 3.4v17c7 2.3 14.3 3.5 21.6 3.4 7.3 0 14.6-1.1 21.6-3.4v-17c.1-1.8-1.5-3.4-3.3-3.4z"/><g fill="#fff"><path d="m28.6 23.7h15.4v2.3h-15.4z"/><path d="m28.9 28.5h14.8v.6h-14.8z"/><path d="m26.3 30.3h19.9v.6h-19.9z"/></g><path fill="url(#g)" d="m30.1 33.2h12.3c.2 0 .4.2.4.4v3.4c0 .2-.2.4-.4.4h-12.3c-.2 0-.4-.2-.4-.4v-3.4c0-.2.2-.4.4-.4z"/><path fill="url(#i)" d="m18.9 46.2h10.3v10.3h-10.3z"/><path fill="url(#j)" d="m31.1 46.2h10.3v10.3h-10.3z"/><path fill="url(#k)" d="m43.3 46.2h10.3v10.3h-10.3z"/><path fill="url(#l)" d="m48.6 24.4h17.5v17.5h-17.5z"/><path fill="#f6f6f6" d="m60.3 34c-2 .1-4-.4-5.7-1.4-1.8-1-3.8-1.5-5.9-1.4v9.8c0 .5.5.8 1.2.8h14.9c.7 0 1.2-.4 1.2-.8v-8.4c-1.8.9-3.7 1.4-5.7 1.4z"/><path fill="url(#n)" d="m58.4 31.9c1.3-.9 2.5-1.9 3.7-3-.3-.2-.6-.4-.8-.6-.3-.3-.5-.6-.7-.9-1 1.2-2 2.4-2.9 3.7-1.1 0-2.1.4-2.9 1.2-1.2 1.2-1.1 4.2-1.1 4.2.5-.7 1.3-1.3 2.2-1.5 1.4-.3 2.5-1.6 2.5-3.1z"/><path fill="url(#o)" d="m56.8 39.3.1.1 4.1-2.1-2.2-2z"/><path fill="url(#p)" d="m67.7 25.9-1.2 1.3v-2.7l.4-.4s3.8-3.9 2.8-4.6-4.6 2.9-4.6 2.9l-1.4 1.5h-14.8c-.6 0-1 .4-1 1v16c0 .8.7 1.5 1.5 1.5h15.6c.8 0 1.5-.7 1.5-1.5v-9.3l3.4-3.5zm-2.8 14.9h-15.5v-15.4h12.9c-.6.6-1.1 1.3-1.5 1.7.4.6.9 1.2 1.6 1.5.6-.5 1.6-1.6 2.6-2.5v2.7l-5.7 6 2.2 2.1 3.5-3.8v7.7z"/><path fill="url(#q)" d="m72.1 25-1.4-1.4c-.3-.2-.6-.1-.8.1l-1.6 1.7 2.2 2.1 1.6-1.7c.1-.1.1-.5 0-.8z"/></svg>