<svg xmlns="http://www.w3.org/2000/svg" xmlns:xlink="http://www.w3.org/1999/xlink" enable-background="new 0 0 75 83.8" viewBox="0 0 75 83.8"><linearGradient id="a" x1="32.312" x2="51.312" y1="-2044.8" y2="-2103.8" gradientTransform="matrix(1 0 0 -1 0 -2032)" gradientUnits="userSpaceOnUse"><stop offset="0" stop-color="#fb6874"/><stop offset="1" stop-color="#f56fae"/></linearGradient><linearGradient id="b"><stop offset=".001" stop-color="#fb993c"/><stop offset=".999" stop-color="#ffc58e"/></linearGradient><linearGradient id="c" x1="15.9" x2="15.9" y1="-2068.653" y2="-2044.653" gradientTransform="matrix(1 0 0 -1 0 -2032)" gradientUnits="userSpaceOnUse" xlink:href="#b"/><clipPath id="d"><path d="m38.9 63.2h-21c-1.6 0-2.9-1.3-2.9-2.9v-32.2c0-1.6 1.3-2.9 2.9-2.9h21c1.6 0 2.9 1.3 2.9 2.9v32.2c0 1.6-1.3 2.9-2.9 2.9z"/></clipPath><clipPath id="e"><path d="m38.9 63.2h-21c-1.6 0-2.9-1.3-2.9-2.9v-32.2c0-1.6 1.3-2.9 2.9-2.9h21c1.6 0 2.9 1.3 2.9 2.9v32.2c0 1.6-1.3 2.9-2.9 2.9z"/></clipPath><clipPath id="f"><path d="m38.9 63.2h-21c-1.6 0-2.9-1.3-2.9-2.9v-32.2c0-1.6 1.3-2.9 2.9-2.9h21c1.6 0 2.9 1.3 2.9 2.9v32.2c0 1.6-1.3 2.9-2.9 2.9z"/></clipPath><linearGradient id="g" x1="28.4" x2="28.4" y1="-2095.6" y2="-2056.7" gradientTransform="matrix(1 0 0 -1 0 -2032)" gradientUnits="userSpaceOnUse"><stop offset="0" stop-color="#e1e9fe"/><stop offset="1" stop-color="#dcf3fd"/></linearGradient><clipPath id="h"><path d="m40.1 62h-23.4c-.3 0-.5-.2-.5-.5v-34.5c0-.3.2-.5.5-.5h23.4c.3 0 .5.2.5.5v34.5c0 .3-.2.5-.5.5z"/></clipPath><linearGradient id="i" x1="29.557" x2="33.954" y1="64.588" y2="48.177" gradientUnits="userSpaceOnUse"><stop offset="0" stop-color="#30a2e3"/><stop offset=".091" stop-color="#30b5dd"/><stop offset=".217" stop-color="#2fc7d8"/><stop offset=".368" stop-color="#2fd3d4"/><stop offset=".567" stop-color="#2fdbd2"/><stop offset="1" stop-color="#2fddd1"/></linearGradient><linearGradient id="j" x1="23.4" x2="23.4" y1="-2077.585" y2="-2070.185" gradientTransform="matrix(1 0 0 -1 0 -2032)" gradientUnits="userSpaceOnUse" xlink:href="#b"/><linearGradient id="k"><stop offset="0" stop-color="#8f31c1"/><stop offset="1" stop-color="#f56fae"/></linearGradient><linearGradient id="l" x1="51.276" x2="65.56" y1="-2078.7" y2="-2078.7" gradientTransform="matrix(1 0 0 -1 0 -2032)" gradientUnits="userSpaceOnUse" xlink:href="#k"/><linearGradient id="m" x1="49.061" x2="67.761" y1="-2082.3" y2="-2082.3" gradientTransform="matrix(1 0 0 -1 0 -2032)" gradientUnits="userSpaceOnUse" xlink:href="#k"/><linearGradient id="n" x1="51.276" x2="65.56" y1="-2085.9" y2="-2085.9" gradientTransform="matrix(1 0 0 -1 0 -2032)" gradientUnits="userSpaceOnUse" xlink:href="#k"/><linearGradient id="o" x1="51.276" x2="65.56" y1="-2065" y2="-2065" gradientTransform="matrix(1 0 0 -1 0 -2032)" gradientUnits="userSpaceOnUse" xlink:href="#k"/><linearGradient id="p" x1="49.061" x2="67.761" y1="-2068.6" y2="-2068.6" gradientTransform="matrix(1 0 0 -1 0 -2032)" gradientUnits="userSpaceOnUse" xlink:href="#k"/><linearGradient id="q" x1="51.276" x2="65.56" y1="-2072.2" y2="-2072.2" gradientTransform="matrix(1 0 0 -1 0 -2032)" gradientUnits="userSpaceOnUse" xlink:href="#k"/><linearGradient id="r" x1="58.4" x2="58.4" y1="-2095.7" y2="-2056.668" gradientTransform="matrix(1 0 0 -1 0 -2032)" gradientUnits="userSpaceOnUse"><stop offset="0" stop-color="#b3b3b3"/><stop offset="1" stop-color="#f2f2f2"/></linearGradient><path fill="url(#a)" d="m70.1 53.5c0-1.6-.6-3.1-1.8-4.3l-16-16 17.3-17.3c1.1-1.1.3-3-1.3-3h-36.3l-16 16c-1.2 1.2-1.8 2.8-1.8 4.3 0 1.6.6 3.1 1.8 4.3l16 16-17.3 17.3c-1.1 1.1-.3 3 1.3 3h36.4l16-16c.3-.3.6-.6.8-1 .6-1 .9-2.1.9-3.3z"/><circle cx="15.9" cy="24.7" r="12" fill="url(#c)"/><g fill="#fff"><path d="m16 25.2-1.1 1.5v-1.5z" clip-path="url(#d)"/><path d="m41.8 61.6-1.1 1.6h-25.8v-36.5l1.1-1.5h25.8z" clip-path="url(#e)"/><path d="m40.7 63.2 1.1-1.6v1.6z" clip-path="url(#f)"/></g><path fill="url(#g)" d="m39.9 63.6h-23.1c-1.2 0-2.2-1.4-2.2-3.1v-32.7c0-1.7 1-3.1 2.2-3.1h23.2c1.2 0 2.2 1.4 2.2 3.1v32.8c-.1 1.7-1.1 3-2.3 3zm-23.1-38c-.8 0-1.5 1-1.5 2.2v32.8c0 1.2.7 2.2 1.5 2.2h23.2c.8 0 1.5-1 1.5-2.2v-32.8c0-1.2-.7-2.2-1.5-2.2z"/><path fill="#769afc" d="m40.1 62h-23.4c-.3 0-.5-.2-.5-.5v-34.5c0-.3.2-.5.5-.5h23.4c.3 0 .5.2.5.5v34.5c0 .3-.2.5-.5.5z" clip-path="url(#h)"/><path fill="#6bf9eb" d="m13.8 62 8.5-10.8s.2-.3.7-.3c.5-.1.7.2 1.2.8s5.7 7.1 5.7 7.1v3.2z" clip-path="url(#h)"/><path fill="url(#i)" d="m19.9 62 10.9-13.9s.3-.3.9-.4.9.2 1.5 1 7.4 9.2 7.4 9.2v4.1z" clip-path="url(#h)"/><circle cx="23.4" cy="41.9" r="3.7" fill="url(#j)"/><path fill="#fff" d="m48.2 25.6c-1.4 0-2.5 1.2-2.5 3v31c0 1.8 1.1 3.3 2.5 3.3h20.4c1.4 0 2.5-1.5 2.5-3.3v-31c0-1.8-1.1-3-2.5-3z"/><path fill="url(#l)" d="m51.2 46.1h14.3v1.2h-14.3z"/><path fill="url(#m)" d="m49 49.7h18.7v1.2h-18.7z"/><path fill="url(#n)" d="m51.2 53.3h14.3v1.2h-14.3z"/><path fill="url(#o)" d="m51.2 32.4h14.3v1.2h-14.3z"/><path fill="url(#p)" d="m49 36h18.7v1.2h-18.7z"/><path fill="url(#q)" d="m51.2 39.6h14.3v1.2h-14.3z"/><path fill="url(#r)" d="m67.4 63.7h-18c-2.5 0-4.5-2-4.5-4.5v-30.1c0-2.5 2-4.5 4.5-4.5h18c2.5 0 4.5 2 4.5 4.5v30.1c-.1 2.5-2.1 4.5-4.5 4.5zm-18-37.7c-1.7 0-3.2 1.4-3.2 3.2v30.1c0 1.7 1.4 3.2 3.2 3.2h18c1.7 0 3.2-1.4 3.2-3.2v-30.2c0-1.7-1.4-3.2-3.2-3.2z"/></svg>