<svg xmlns="http://www.w3.org/2000/svg" xmlns:xlink="http://www.w3.org/1999/xlink" enable-background="new 0 0 75 83.8" viewBox="0 0 75 83.8"><linearGradient id="a" x1="30.916" x2="49.916" y1="10.681" y2="69.681" gradientTransform="matrix(1 .00177635 -.00177635 1 -1.7696 .7609)" gradientUnits="userSpaceOnUse"><stop offset="0" stop-color="#f56fae"/><stop offset="1" stop-color="#fb6874"/></linearGradient><linearGradient id="b"><stop offset=".001" stop-color="#fb993c"/><stop offset=".999" stop-color="#ffc58e"/></linearGradient><linearGradient id="c" x1="49.245" x2="49.245" y1="70.136" y2="46.469" gradientTransform="matrix(1 -.00853353 .00853353 1 8.7293 -5.296)" gradientUnits="userSpaceOnUse" xlink:href="#b"/><linearGradient id="d"><stop offset="0" stop-color="#fb6874"/><stop offset="1" stop-color="#f56fae"/></linearGradient><linearGradient id="e" x1="22.34" x2="53.237" y1="51.88" y2="51.88" gradientUnits="userSpaceOnUse" xlink:href="#d"/><linearGradient id="f" x1="24.34" x2="51.237" y1="54.63" y2="54.63" gradientUnits="userSpaceOnUse" xlink:href="#d"/><linearGradient id="g" x1="30.34" x2="45.237" y1="57.38" y2="57.38" gradientUnits="userSpaceOnUse" xlink:href="#d"/><linearGradient id="h" x1="16.605" x2="58.938" y1="33.056" y2="33.056" gradientUnits="userSpaceOnUse"><stop offset="0" stop-color="#4b8ce7"/><stop offset=".948" stop-color="#8859f1"/></linearGradient><linearGradient id="i" x1="27.44" x2="48.103" y1="29.845" y2="29.845" gradientUnits="userSpaceOnUse" xlink:href="#b"/><linearGradient id="j"><stop offset=".052" stop-color="#8859f1"/><stop offset="1" stop-color="#4b8ce7"/></linearGradient><linearGradient id="k" x1="51.786" x2="23.534" y1="52.158" y2="52.158" gradientUnits="userSpaceOnUse" xlink:href="#j"/><linearGradient id="l" x1="51.786" x2="23.534" y1="54.261" y2="54.261" gradientUnits="userSpaceOnUse" xlink:href="#j"/><linearGradient id="m" x1="51.786" x2="23.534" y1="56.364" y2="56.364" gradientUnits="userSpaceOnUse" xlink:href="#j"/><linearGradient id="n" x1="37.788" x2="37.788" y1="63.231" y2="20.481" gradientUnits="userSpaceOnUse"><stop offset="0" stop-color="#b3b3b3"/><stop offset="1" stop-color="#f2f2f2"/></linearGradient><path fill="url(#a)" d="m66.9 52.3c0-1.6-.6-3.1-1.8-4.3l-16-16 17.3-17.3c1.1-1.1.3-3-1.3-3l-36.4-.1-16.1 16c-1.2 1.2-1.8 2.7-1.8 4.3s.6 3.1 1.8 4.3l16 16.1-17.2 17.2c-1.1 1.1-.3 3 1.3 3l36.4.1 16-16c.3-.3.6-.6.8-1 .6-.9 1-2.1 1-3.3z"/><circle cx="58.5" cy="52.6" r="11.8" fill="url(#c)"/><path fill="url(#e)" d="m22.3 51.4h30.9v.9h-30.9z"/><path fill="url(#f)" d="m24.3 54.2h26.9v.9h-26.9z"/><path fill="url(#g)" d="m30.3 56.9h14.9v.9h-14.9z"/><path fill="#fff" d="m19.5 63.3h36.5c1.6 0 2.9-1.3 2.9-2.9v-19.1c-3.7 0-7.2 3.8-10.6 3.8-3.8 0-5.3-3.8-10.6-3.8-5.7 0-7.4 3.8-10.6 3.8-4 0-7.5-3.8-10.6-3.8v19.1c.1 1.6 1.4 2.9 3 2.9z"/><path d="m37.8 41.3c5.3 0 6.8 3.8 10.6 3.8 3.3 0 6.9-3.8 10.6-3.8v-17.4c0-1.6-1.3-2.9-2.9-2.9h-36.6c-1.6 0-2.9 1.3-2.9 2.9v17.5c3 0 6.6 3.8 10.6 3.8 3.2 0 4.8-3.9 10.6-3.9z"/><path fill="url(#h)" d="m37.8 41.3c5.3 0 6.8 3.8 10.6 3.8 3.3 0 6.9-3.8 10.6-3.8v-17.4c0-1.6-1.3-2.9-2.9-2.9h-36.6c-1.6 0-2.9 1.3-2.9 2.9v17.5c3 0 6.6 3.8 10.6 3.8 3.2 0 4.8-3.9 10.6-3.9z"/><path fill="url(#i)" d="m27.4 28.6h20.7v2.5h-20.7z"/><path fill="#fff" d="m24.3 36.5h26.9v.9h-26.9z" transform="matrix(-1 -.00000021 .00000021 -1 75.5429 73.9271)"/><path fill="#fff" d="m30.3 33.8h14.9v.9h-14.9z" transform="matrix(-1 -.00000021 .00000021 -1 75.5429 68.4271)"/><path fill="#f6f6f6" d="m22.7 49.2c-.8 0-1.5.8-1.5 1.9v6.1c0 1 .7 1.9 1.5 1.9h12.7c.8 0 1.5-.8 1.5-1.9v-6.1c0-1-.7-1.9-1.5-1.9z"/><path fill="url(#k)" d="m24.8 51.8h8.5v.7h-8.5z"/><path fill="url(#l)" d="m23.5 53.9h11.1v.7h-11.1z"/><path fill="url(#m)" d="m24.8 56h8.5v.7h-8.5z"/><path fill="#f6f6f6" d="m40.2 49.2c-.8 0-1.5.8-1.5 1.9v6.1c0 1 .7 1.9 1.5 1.9h12.7c.8 0 1.5-.8 1.5-1.9v-6.1c0-1-.7-1.9-1.5-1.9z"/><path fill="url(#k)" d="m42.3 51.8h8.5v.7h-8.5z"/><path fill="url(#l)" d="m41 53.9h11.1v.7h-11.1z"/><path fill="url(#m)" d="m42.3 56h8.5v.7h-8.5z"/><path fill="url(#n)" d="m56 20.5h-18-1.1-17.4c-1.9 0-3.4 1.5-3.4 3.4v36.5c0 1.9 1.5 3.4 3.4 3.4h17.4 1.1 18c1.9 0 3.4-1.5 3.4-3.4v-36.5c.1-1.9-1.5-3.4-3.4-3.4zm2.5 39.9c0 1.3-1.1 2.4-2.4 2.4h-18.1-1.1-17.4c-1.3 0-2.4-1.1-2.4-2.4v-36.5c0-1.3 1.1-2.4 2.4-2.4h17.4 1.1 18c1.3 0 2.4 1.1 2.4 2.4v36.5z"/></svg>