<svg xmlns="http://www.w3.org/2000/svg" xmlns:xlink="http://www.w3.org/1999/xlink" enable-background="new 0 0 75 83.8" viewBox="0 0 75 83.8"><linearGradient id="a"><stop offset="0" stop-color="#fb6874"/><stop offset="1" stop-color="#f56fae"/></linearGradient><linearGradient id="b" x1="29.154" x2="48.154" y1="11.519" y2="70.519" gradientUnits="userSpaceOnUse" xlink:href="#a"/><linearGradient id="c" x1="17.341" x2="17.341" y1="69.615" y2="45.949" gradientTransform="matrix(1 -.00853353 .00853353 1 8.7293 -5.296)" gradientUnits="userSpaceOnUse"><stop offset="0" stop-color="#0e48b5"/><stop offset="1" stop-color="#30a2e3"/></linearGradient><linearGradient id="d" x1="46.476" x2="46.476" y1="66.72" y2="17.525" gradientUnits="userSpaceOnUse"><stop offset="0" stop-color="#b3b3b3"/><stop offset="1" stop-color="#f2f2f2"/></linearGradient><linearGradient id="e" x1="46.476" x2="46.476" y1="38.602" y2="21.352" gradientUnits="userSpaceOnUse"><stop offset="0" stop-color="#ab5af1"/><stop offset="1" stop-color="#749cfc"/></linearGradient><linearGradient id="f" x1="39.639" x2="59.947" y1="33.178" y2="33.178" gradientUnits="userSpaceOnUse"><stop offset="0" stop-color="#34d1d9"/><stop offset="1" stop-color="#5aece5"/></linearGradient><clipPath id="g"><circle cx="42.1" cy="26.2" r="2.2"/></clipPath><linearGradient id="h"><stop offset="0" stop-color="#30a2e3"/><stop offset="1" stop-color="#0e48b5"/></linearGradient><linearGradient id="i" x1="35.766" x2="57.185" y1="44.991" y2="44.809" gradientUnits="userSpaceOnUse" xlink:href="#h"/><linearGradient id="j" x1="36.867" x2="56.085" y1="49.167" y2="49.003" gradientUnits="userSpaceOnUse" xlink:href="#h"/><linearGradient id="k" x1="34.287" x2="58.665" y1="51.939" y2="51.731" gradientUnits="userSpaceOnUse" xlink:href="#h"/><linearGradient id="l" x1="37.909" x2="55.043" y1="58.661" y2="58.514" gradientUnits="userSpaceOnUse"><stop offset="0" stop-color="#fc7d76"/><stop offset="1" stop-color="#fcac60"/></linearGradient><linearGradient id="m" x1="251.659" x2="270.659" y1="159.563" y2="218.563" gradientUnits="userSpaceOnUse"><stop offset="0" stop-color="#0f39c3"/><stop offset="1" stop-color="#fa96d3"/></linearGradient><linearGradient id="n" x1="227.112" x2="227.112" y1="219.19" y2="195.524" gradientTransform="matrix(1 -.00853353 .00853353 1 8.7293 -5.296)" gradientUnits="userSpaceOnUse" xlink:href="#a"/><linearGradient id="o"><stop offset="0" stop-color="#f2f2f2"/><stop offset="1" stop-color="#b3b3b3"/></linearGradient><linearGradient id="p" x1="269.087" x2="289.42" y1="184.576" y2="204.564" gradientUnits="userSpaceOnUse" xlink:href="#o"/><linearGradient id="q"><stop offset="0" stop-color="#30a2e3"/><stop offset="1" stop-color="#2fddd1"/></linearGradient><linearGradient id="r" x1="271.163" x2="289.358" y1="178.848" y2="178.848" gradientUnits="userSpaceOnUse" xlink:href="#q"/><linearGradient id="s"><stop offset=".001" stop-color="#fb993c"/><stop offset=".999" stop-color="#ffc58e"/></linearGradient><linearGradient id="t" x1="274.368" x2="286.154" y1="199.962" y2="199.962" gradientUnits="userSpaceOnUse" xlink:href="#s"/><linearGradient id="u" x1="233.921" x2="254.762" y1="184.326" y2="204.814" gradientUnits="userSpaceOnUse" xlink:href="#o"/><linearGradient id="v" x1="233.751" x2="251.946" y1="178.848" y2="178.848" gradientUnits="userSpaceOnUse" xlink:href="#q"/><linearGradient id="w" x1="236.955" x2="248.742" y1="199.962" y2="199.962" gradientUnits="userSpaceOnUse" xlink:href="#s"/><linearGradient id="x" x1="250.218" x2="272.874" y1="185.123" y2="207.396" gradientUnits="userSpaceOnUse" xlink:href="#o"/><linearGradient id="y" x1="250.884" x2="272.226" y1="177.231" y2="177.231" gradientUnits="userSpaceOnUse" xlink:href="#q"/><linearGradient id="z" x1="254.642" x2="268.467" y1="202.583" y2="202.583" gradientUnits="userSpaceOnUse" xlink:href="#s"/><path fill="url(#b)" d="m67 52.3c0-1.6-.6-3.1-1.8-4.3l-16-16 17.3-17.3c1.1-1.1.3-3-1.3-3h-36.4l-16 16c-1.2 1.1-1.8 2.7-1.8 4.3s.6 3.1 1.8 4.3l16 16-17.2 17.3c-1.1 1.1-.3 3 1.3 3h36.4l16-16c.3-.3.6-.6.8-1 .6-1 .9-2.1.9-3.3z"/><circle cx="26.6" cy="52.3" r="11.8" fill="url(#c)"/><path fill="#fff" d="m59.7 18h-26.4c-1.6 0-2.9 1.3-2.9 2.9v15.8 27.3c0 1.2 1 2.2 2.2 2.2h27.7c1.2 0 2.2-1 2.2-2.2v-23.6-19.5c0-1.6-1.3-2.9-2.8-2.9z"/><path fill="url(#d)" d="m59.9 66.7h-26.8c-1.9 0-3.4-1.5-3.4-3.4v-42.4c0-1.9 1.5-3.4 3.4-3.4h26.8c1.9 0 3.4 1.5 3.4 3.4v42.4c0 1.9-1.5 3.4-3.4 3.4zm-26.8-48.2c-1.3 0-2.4 1.1-2.4 2.4v42.4c0 1.3 1.1 2.4 2.4 2.4h26.8c1.3 0 2.4-1.1 2.4-2.4v-42.4c0-1.3-1.1-2.4-2.4-2.4z"/><path fill="url(#e)" d="m33.1 21.4h26.8v17.2h-26.8z"/><path fill="#6bf9eb" d="m44.5 32.9-1.8-2.3c-.3-.3-.8-.3-1.1 0l-6.5 7.9h4.9z"/><path fill="url(#f)" d="m48.4 28-3.9 5-4.5 5.6h18l-8.5-10.6c-.3-.3-.8-.3-1.1 0z"/><path fill="#fcac60" d="m39.9 28.3h4.4v.1h-4.4z" clip-path="url(#g)"/><path fill="#fcad61" d="m39.9 28.2h4.4v.1h-4.4z" clip-path="url(#g)"/><path fill="#fcad62" d="m39.9 28.1h4.4v.1h-4.4z" clip-path="url(#g)"/><path fill="#fcae63" d="m39.9 28h4.4v.1h-4.4z" clip-path="url(#g)"/><path fill="#fcae64" d="m39.9 27.9h4.4v.1h-4.4z" clip-path="url(#g)"/><path fill="#fcaf65" d="m39.9 27.8h4.4v.1h-4.4z" clip-path="url(#g)"/><path fill="#fcaf66" d="m39.9 27.7h4.4v.1h-4.4z" clip-path="url(#g)"/><path fill="#fcb067" d="m39.9 27.6h4.4v.1h-4.4z" clip-path="url(#g)"/><path fill="#fdb068" d="m39.9 27.5h4.4v.1h-4.4z" clip-path="url(#g)"/><path fill="#fdb169" d="m39.9 27.4h4.4v.1h-4.4z" clip-path="url(#g)"/><path fill="#fdb26a" d="m39.9 27.3h4.4v.1h-4.4z" clip-path="url(#g)"/><path fill="#fdb26b" d="m39.9 27.2h4.4v.1h-4.4z" clip-path="url(#g)"/><path fill="#fdb36c" d="m39.9 27.1h4.4v.1h-4.4z" clip-path="url(#g)"/><path fill="#fdb36d" d="m39.9 27h4.4v.1h-4.4z" clip-path="url(#g)"/><path fill="#fdb46e" d="m39.9 26.9h4.4v.1h-4.4z" clip-path="url(#g)"/><path fill="#fdb46f" d="m39.9 26.8h4.4v.1h-4.4z" clip-path="url(#g)"/><path fill="#fdb570" d="m39.9 26.7h4.4v.1h-4.4z" clip-path="url(#g)"/><path fill="#fdb571" d="m39.9 26.6h4.4v.1h-4.4z" clip-path="url(#g)"/><path fill="#fdb672" d="m39.9 26.6h4.4v.1h-4.4z" clip-path="url(#g)"/><path fill="#fdb773" d="m39.9 26.5h4.4v.1h-4.4z" clip-path="url(#g)"/><path fill="#fdb774" d="m39.9 26.4h4.4v.1h-4.4z" clip-path="url(#g)"/><path fill="#fdb875" d="m39.9 26.3h4.4v.1h-4.4z" clip-path="url(#g)"/><path fill="#fdb876" d="m39.9 26.2h4.4v.1h-4.4z" clip-path="url(#g)"/><path fill="#feb978" d="m39.9 26.1h4.4v.1h-4.4z" clip-path="url(#g)"/><path fill="#feb979" d="m39.9 26h4.4v.1h-4.4z" clip-path="url(#g)"/><path fill="#feba7a" d="m39.9 25.9h4.4v.1h-4.4z" clip-path="url(#g)"/><path fill="#feba7b" d="m39.9 25.8h4.4v.1h-4.4z" clip-path="url(#g)"/><path fill="#febb7c" d="m39.9 25.7h4.4v.1h-4.4z" clip-path="url(#g)"/><path fill="#febc7d" d="m39.9 25.6h4.4v.1h-4.4z" clip-path="url(#g)"/><path fill="#febc7e" d="m39.9 25.5h4.4v.1h-4.4z" clip-path="url(#g)"/><path fill="#febd7f" d="m39.9 25.4h4.4v.1h-4.4z" clip-path="url(#g)"/><path fill="#febd80" d="m39.9 25.3h4.4v.1h-4.4z" clip-path="url(#g)"/><path fill="#febe81" d="m39.9 25.2h4.4v.1h-4.4z" clip-path="url(#g)"/><path fill="#febe82" d="m39.9 25.1h4.4v.1h-4.4z" clip-path="url(#g)"/><path fill="#febf83" d="m39.9 25h4.4v.1h-4.4z" clip-path="url(#g)"/><path fill="#febf84" d="m39.9 24.9h4.4v.1h-4.4z" clip-path="url(#g)"/><path fill="#fec085" d="m39.9 24.8h4.4v.1h-4.4z" clip-path="url(#g)"/><path fill="#fec186" d="m39.9 24.7h4.4v.1h-4.4z" clip-path="url(#g)"/><path fill="#ffc187" d="m39.9 24.6h4.4v.1h-4.4z" clip-path="url(#g)"/><path fill="#ffc288" d="m39.9 24.5h4.4v.1h-4.4z" clip-path="url(#g)"/><path fill="#ffc289" d="m39.9 24.4h4.4v.1h-4.4z" clip-path="url(#g)"/><path fill="#ffc38a" d="m39.9 24.3h4.4v.1h-4.4z" clip-path="url(#g)"/><path fill="#ffc38b" d="m39.9 24.2h4.4v.1h-4.4z" clip-path="url(#g)"/><path fill="#ffc48c" d="m39.9 24.1h4.4v.1h-4.4z" clip-path="url(#g)"/><path fill="#ffc48d" d="m39.9 24h4.4v.1h-4.4z" clip-path="url(#g)"/><path fill="#ffc58e" d="m39.9 24h4.4v.1h-4.4z" clip-path="url(#g)"/><path fill="url(#i)" d="m35.8 43.4h21.4v2.9h-21.4z"/><path fill="url(#j)" d="m36.9 48.6h19.2v.9h-19.2z"/><path fill="url(#k)" d="m34.3 51.4h24.4v.9h-24.4z"/><path fill="url(#l)" d="m54.4 61.4h-15.8c-.4 0-.6-.3-.6-.6v-4.3c0-.4.3-.6.6-.6h15.8c.4 0 .6.3.6.6v4.3c0 .3-.3.6-.6.6z"/><path fill="url(#m)" d="m289.5 200.3c0-1.6-.6-3.1-1.8-4.3l-16-16 17.3-17.3c1.1-1.1.3-3-1.3-3h-36.4l-16 16c-1.2 1.2-1.8 2.8-1.8 4.3 0 1.6.6 3.1 1.8 4.3l16 16-17.3 17.3c-1.1 1.1-.3 3 1.3 3h36.4l16-16c.3-.3.6-.6.8-1 .7-.9 1-2.1 1-3.3z"/><circle cx="237.6" cy="200.1" r="11.8" fill="url(#n)"/><path fill="#fff" d="m269.6 183.6v19.6c0 1.5 1.2 2.8 2.8 2.8h13.7c1.5 0 2.8-1.2 2.8-2.8v-19.6z"/><path fill="url(#p)" d="m270 184.5v18.9c0 1.1.9 2.1 2.1 2.1h14.4c1.1 0 2.1-.9 2.1-2.1v-18.9h.9v18.9c0 1.6-1.3 2.9-2.9 2.9h-14.4c-1.6 0-2.9-1.3-2.9-2.9v-18.9"/><path fill="url(#r)" d="m287.3 173.2h-14c-1.2 0-2.1.9-2.1 2.1v9.2h18.2v-9.2c0-1.2-1-2.1-2.1-2.1z"/><path fill="#fff" d="m281.6 177.1c-.3-.2-.6-.4-.9-.5v1.6c1.1.4 1.5.9 1.5 1.7 0 .8-.6 1.4-1.5 1.5v.8h-.7v-.8c-.6-.1-1.2-.3-1.7-.8l.5-.7c.4.3.7.6 1.2.6v-1.5c-1-.4-1.5-.8-1.5-1.7 0-.8.6-1.4 1.5-1.5v-.5h.6v.5c.5.1 1 .3 1.4.6zm-1.6.9v-1.4c-.4.1-.6.3-.6.7.1.2.2.4.6.7zm.7 1.2v1.5c.4-.1.6-.3.6-.7 0-.4-.2-.6-.6-.8z"/><g fill="#ccc"><path d="m274.3 187.9h11.8v.8h-11.8z"/><path d="m274.3 190.2h11.8v.8h-11.8z"/><path d="m284 193.3h-9.7v-.8h11.9v.8z"/><path d="m274.3 194.9h11.8v.8h-11.8z"/></g><path fill="url(#t)" d="m285.6 202.3h-10.7c-.3 0-.5-.2-.5-.5v-3.7c0-.3.2-.5.5-.5h10.7c.3 0 .5.2.5.5v3.7c.1.3-.2.5-.5.5z"/><path fill="#fff" d="m234.2 183.6v19.6c0 1.5 1.2 2.8 2.8 2.8h14.7c1.5 0 2.8-1.2 2.8-2.8v-19.6z"/><path fill="url(#u)" d="m234.6 184.5v18.9c0 1.1.9 2.1 2.1 2.1h15.3c1.1 0 2.1-.9 2.1-2.1v-18.9h.9v18.9c0 1.6-1.3 2.9-2.9 2.9h-15.4c-1.6 0-2.9-1.3-2.9-2.9v-18.9"/><path fill="url(#v)" d="m249.8 173.2h-14c-1.2 0-2.1.9-2.1 2.1v9.2h18.2v-9.2c0-1.2-.9-2.1-2.1-2.1z"/><path fill="#fff" d="m244.2 177.1c-.3-.2-.6-.4-.9-.5v1.6c1.1.4 1.5.9 1.5 1.7 0 .8-.6 1.4-1.5 1.5v.8h-.6v-.8c-.6-.1-1.2-.3-1.7-.8l.5-.7c.4.3.7.6 1.2.6v-1.5c-1-.4-1.5-.8-1.5-1.7 0-.8.6-1.4 1.5-1.5v-.5h.6v.5c.5.1 1 .3 1.4.6zm-1.6.9v-1.4c-.4.1-.6.3-.6.7.1.2.2.4.6.7zm.6 1.2v1.5c.4-.1.6-.3.6-.7.1-.4-.1-.6-.6-.8z"/><path fill="#ccc" d="m236.9 187.9h11.8v.8h-11.8z"/><path fill="#ccc" d="m236.9 190.2h11.8v.8h-11.8z"/><path fill="#ccc" d="m246.6 193.3h-9.7v-.8h11.9v.8z"/><path fill="#ccc" d="m236.9 194.9h11.8v.8h-11.8z"/><path fill="url(#w)" d="m248.2 202.3h-10.7c-.3 0-.5-.2-.5-.5v-3.7c0-.3.2-.5.5-.5h10.7c.3 0 .5.2.5.5v3.7c0 .3-.2.5-.5.5z"/><path fill="#fff" d="m251.4 183.4v23c0 1.8 1.5 3.3 3.3 3.3h13.8c1.8 0 3.3-1.5 3.3-3.3v-23z"/><path fill="url(#x)" d="m251.9 184.4v22.2c0 1.3 1.1 2.4 2.4 2.4h14.5c1.3 0 2.4-1.1 2.4-2.4v-22.2h1v22.2c0 1.9-1.5 3.4-3.4 3.4h-14.5c-1.9 0-3.4-1.5-3.4-3.4v-22.2"/><path fill="url(#y)" d="m269.8 170h-16.4c-1.4 0-2.5 1.1-2.5 2.5v11.9h21.3v-11.9c0-1.4-1.1-2.5-2.4-2.5z"/><path fill="#fff" d="m263.1 175.7c-.3-.3-.7-.5-1.1-.6v1.9c1.3.5 1.8 1.1 1.8 2 0 1-.7 1.7-1.8 1.8v1h-.8v-1c-.7-.1-1.4-.4-2-.9l.6-.8c.4.4.9.7 1.4.8v-2c-1.2-.5-1.7-1-1.7-1.9 0-1 .7-1.6 1.7-1.8v-.6h.8v.6c.6.1 1.2.3 1.6.7zm-1.8 1.1v-1.6c-.5.1-.7.4-.7.8 0 .3.2.5.7.8zm.7 1.4v1.7c.5-.1.7-.4.7-.8 0-.4-.1-.6-.7-.9z"/><path fill="#ccc" d="m254.6 188.4h13.9v.9h-13.9z"/><path fill="#ccc" d="m254.6 191.1h13.9v.9h-13.9z"/><path fill="#ccc" d="m266 194.8h-11.4v-.9h13.9v.9z"/><path fill="#ccc" d="m254.6 196.6h13.9v.9h-13.9z"/><path fill="url(#z)" d="m267.8 205.4h-12.6c-.4 0-.6-.3-.6-.6v-4.3c0-.4.3-.6.6-.6h12.6c.4 0 .6.3.6.6v4.3c.1.3-.2.6-.6.6z"/></svg>