<svg xmlns="http://www.w3.org/2000/svg" xmlns:xlink="http://www.w3.org/1999/xlink" enable-background="new 0 0 75 83.8" viewBox="0 0 75 83.8"><linearGradient id="a" x1="251.659" x2="270.659" y1="159.563" y2="218.563" gradientUnits="userSpaceOnUse"><stop offset="0" stop-color="#0f39c3"/><stop offset="1" stop-color="#fa96d3"/></linearGradient><linearGradient id="b"><stop offset="0" stop-color="#fb6874"/><stop offset="1" stop-color="#f56fae"/></linearGradient><linearGradient id="c" x1="227.112" x2="227.112" y1="219.19" y2="195.524" gradientTransform="matrix(1 -.00853353 .00853353 1 8.7293 -5.296)" gradientUnits="userSpaceOnUse" xlink:href="#b"/><linearGradient id="d"><stop offset="0" stop-color="#f2f2f2"/><stop offset="1" stop-color="#b3b3b3"/></linearGradient><linearGradient id="e" x1="269.087" x2="289.42" y1="184.576" y2="204.564" gradientUnits="userSpaceOnUse" xlink:href="#d"/><linearGradient id="f"><stop offset="0" stop-color="#30a2e3"/><stop offset="1" stop-color="#2fddd1"/></linearGradient><linearGradient id="g" x1="271.163" x2="289.358" y1="178.848" y2="178.848" gradientUnits="userSpaceOnUse" xlink:href="#f"/><linearGradient id="h"><stop offset=".001" stop-color="#fb993c"/><stop offset=".999" stop-color="#ffc58e"/></linearGradient><linearGradient id="i" x1="274.368" x2="286.154" y1="199.962" y2="199.962" gradientUnits="userSpaceOnUse" xlink:href="#h"/><linearGradient id="j" x1="233.921" x2="254.762" y1="184.326" y2="204.814" gradientUnits="userSpaceOnUse" xlink:href="#d"/><linearGradient id="k" x1="233.751" x2="251.946" y1="178.848" y2="178.848" gradientUnits="userSpaceOnUse" xlink:href="#f"/><linearGradient id="l" x1="236.955" x2="248.742" y1="199.962" y2="199.962" gradientUnits="userSpaceOnUse" xlink:href="#h"/><linearGradient id="m" x1="250.218" x2="272.874" y1="185.123" y2="207.396" gradientUnits="userSpaceOnUse" xlink:href="#d"/><linearGradient id="n" x1="250.884" x2="272.226" y1="177.231" y2="177.231" gradientUnits="userSpaceOnUse" xlink:href="#f"/><linearGradient id="o" x1="254.642" x2="268.467" y1="202.583" y2="202.583" gradientUnits="userSpaceOnUse" xlink:href="#h"/><linearGradient id="p" x1="28.936" x2="47.936" y1="11.519" y2="70.519" gradientUnits="userSpaceOnUse" xlink:href="#b"/><linearGradient id="q" x1="15.57" x2="15.57" y1="41.507" y2="17.507" gradientUnits="userSpaceOnUse" xlink:href="#f"/><linearGradient id="r" x1="10.44" x2="65.09" y1="45.045" y2="45.045" gradientUnits="userSpaceOnUse"><stop offset="0" stop-color="#0e48b5"/><stop offset="1" stop-color="#30a2e3"/></linearGradient><linearGradient id="s" x1="13.305" x2="64.139" y1="41.457" y2="41.457" gradientUnits="userSpaceOnUse"><stop offset=".45" stop-color="#f2f2f2"/><stop offset=".5" stop-color="#b6b6b6"/><stop offset=".55" stop-color="#f2f2f2"/></linearGradient><linearGradient id="t"><stop offset=".052" stop-color="#8859f1"/><stop offset=".504" stop-color="#30a2e3"/><stop offset="1" stop-color="#91d9f9"/></linearGradient><linearGradient id="u" x1="25.291" x2="25.291" y1="31.663" y2="49.073" gradientUnits="userSpaceOnUse" xlink:href="#t"/><linearGradient id="v" x1="23.778" x2="23.778" y1="31.663" y2="49.073" gradientUnits="userSpaceOnUse" xlink:href="#t"/><linearGradient id="w" x1="52.284" x2="52.284" y1="31.663" y2="49.073" gradientUnits="userSpaceOnUse" xlink:href="#t"/><linearGradient id="x" x1="50.772" x2="50.772" y1="31.663" y2="49.073" gradientUnits="userSpaceOnUse" xlink:href="#t"/><linearGradient id="y" x1="-1552.618" x2="-1536.971" y1="-327.136" y2="-327.135" gradientTransform="matrix(-.00000825 -1 1 .00000437 388.8152 -1483.0736)" gradientUnits="userSpaceOnUse"><stop offset="0" stop-color="#fc7d76"/><stop offset="1" stop-color="#fcac60"/></linearGradient><path fill="url(#a)" d="m289.5 200.3c0-1.6-.6-3.1-1.8-4.3l-16-16 17.3-17.3c1.1-1.1.3-3-1.3-3h-36.4l-16 16c-1.2 1.2-1.8 2.8-1.8 4.3 0 1.6.6 3.1 1.8 4.3l16 16-17.3 17.3c-1.1 1.1-.3 3 1.3 3h36.4l16-16c.3-.3.6-.6.8-1 .7-.9 1-2.1 1-3.3z"/><circle cx="237.6" cy="200.1" r="11.8" fill="url(#c)"/><path fill="#fff" d="m269.6 183.6v19.6c0 1.5 1.2 2.8 2.8 2.8h13.7c1.5 0 2.8-1.2 2.8-2.8v-19.6z"/><path fill="url(#e)" d="m270 184.5v18.9c0 1.1.9 2.1 2.1 2.1h14.4c1.1 0 2.1-.9 2.1-2.1v-18.9h.9v18.9c0 1.6-1.3 2.9-2.9 2.9h-14.4c-1.6 0-2.9-1.3-2.9-2.9v-18.9"/><path fill="url(#g)" d="m287.3 173.2h-14c-1.2 0-2.1.9-2.1 2.1v9.2h18.2v-9.2c0-1.2-1-2.1-2.1-2.1z"/><path fill="#fff" d="m281.6 177.1c-.3-.2-.6-.4-.9-.5v1.6c1.1.4 1.5.9 1.5 1.7 0 .8-.6 1.4-1.5 1.5v.8h-.7v-.8c-.6-.1-1.2-.3-1.7-.8l.5-.7c.4.3.7.6 1.2.6v-1.5c-1-.4-1.5-.8-1.5-1.7 0-.8.6-1.4 1.5-1.5v-.5h.6v.5c.5.1 1 .3 1.4.6zm-1.6.9v-1.4c-.4.1-.6.3-.6.7.1.2.2.4.6.7zm.7 1.2v1.5c.4-.1.6-.3.6-.7 0-.4-.2-.6-.6-.8z"/><path fill="#ccc" d="m274.3 187.9h11.8v.8h-11.8z"/><path fill="#ccc" d="m274.3 190.2h11.8v.8h-11.8z"/><path fill="#ccc" d="m284 193.3h-9.7v-.8h11.9v.8z"/><path fill="#ccc" d="m274.3 194.9h11.8v.8h-11.8z"/><path fill="url(#i)" d="m285.6 202.3h-10.7c-.3 0-.5-.2-.5-.5v-3.7c0-.3.2-.5.5-.5h10.7c.3 0 .5.2.5.5v3.7c.1.3-.2.5-.5.5z"/><path fill="#fff" d="m234.2 183.6v19.6c0 1.5 1.2 2.8 2.8 2.8h14.7c1.5 0 2.8-1.2 2.8-2.8v-19.6z"/><path fill="url(#j)" d="m234.6 184.5v18.9c0 1.1.9 2.1 2.1 2.1h15.3c1.1 0 2.1-.9 2.1-2.1v-18.9h.9v18.9c0 1.6-1.3 2.9-2.9 2.9h-15.4c-1.6 0-2.9-1.3-2.9-2.9v-18.9"/><path fill="url(#k)" d="m249.8 173.2h-14c-1.2 0-2.1.9-2.1 2.1v9.2h18.2v-9.2c0-1.2-.9-2.1-2.1-2.1z"/><path fill="#fff" d="m244.2 177.1c-.3-.2-.6-.4-.9-.5v1.6c1.1.4 1.5.9 1.5 1.7 0 .8-.6 1.4-1.5 1.5v.8h-.6v-.8c-.6-.1-1.2-.3-1.7-.8l.5-.7c.4.3.7.6 1.2.6v-1.5c-1-.4-1.5-.8-1.5-1.7 0-.8.6-1.4 1.5-1.5v-.5h.6v.5c.5.1 1 .3 1.4.6zm-1.6.9v-1.4c-.4.1-.6.3-.6.7.1.2.2.4.6.7zm.6 1.2v1.5c.4-.1.6-.3.6-.7.1-.4-.1-.6-.6-.8z"/><path fill="#ccc" d="m236.9 187.9h11.8v.8h-11.8z"/><path fill="#ccc" d="m236.9 190.2h11.8v.8h-11.8z"/><path fill="#ccc" d="m246.6 193.3h-9.7v-.8h11.9v.8z"/><path fill="#ccc" d="m236.9 194.9h11.8v.8h-11.8z"/><path fill="url(#l)" d="m248.2 202.3h-10.7c-.3 0-.5-.2-.5-.5v-3.7c0-.3.2-.5.5-.5h10.7c.3 0 .5.2.5.5v3.7c0 .3-.2.5-.5.5z"/><path fill="#fff" d="m251.4 183.4v23c0 1.8 1.5 3.3 3.3 3.3h13.8c1.8 0 3.3-1.5 3.3-3.3v-23z"/><path fill="url(#m)" d="m251.9 184.4v22.2c0 1.3 1.1 2.4 2.4 2.4h14.5c1.3 0 2.4-1.1 2.4-2.4v-22.2h1v22.2c0 1.9-1.5 3.4-3.4 3.4h-14.5c-1.9 0-3.4-1.5-3.4-3.4v-22.2"/><path fill="url(#n)" d="m269.8 170h-16.4c-1.4 0-2.5 1.1-2.5 2.5v11.9h21.3v-11.9c0-1.4-1.1-2.5-2.4-2.5z"/><path fill="#fff" d="m263.1 175.7c-.3-.3-.7-.5-1.1-.6v1.9c1.3.5 1.8 1.1 1.8 2 0 1-.7 1.7-1.8 1.8v1h-.8v-1c-.7-.1-1.4-.4-2-.9l.6-.8c.4.4.9.7 1.4.8v-2c-1.2-.5-1.7-1-1.7-1.9 0-1 .7-1.6 1.7-1.8v-.6h.8v.6c.6.1 1.2.3 1.6.7zm-1.8 1.1v-1.6c-.5.1-.7.4-.7.8 0 .3.2.5.7.8zm.7 1.4v1.7c.5-.1.7-.4.7-.8 0-.4-.1-.6-.7-.9z"/><path fill="#ccc" d="m254.6 188.4h13.9v.9h-13.9z"/><path fill="#ccc" d="m254.6 191.1h13.9v.9h-13.9z"/><path fill="#ccc" d="m266 194.8h-11.4v-.9h13.9v.9z"/><path fill="#ccc" d="m254.6 196.6h13.9v.9h-13.9z"/><path fill="url(#o)" d="m267.8 205.4h-12.6c-.4 0-.6-.3-.6-.6v-4.3c0-.4.3-.6.6-.6h12.6c.4 0 .6.3.6.6v4.3c.1.3-.2.6-.6.6z"/><path fill="url(#p)" d="m66.8 52.3c0-1.6-.6-3.1-1.8-4.3l-16-16 17.3-17.3c1.1-1.1.3-3-1.3-3h-36.4l-16 16c-1.2 1.2-1.8 2.8-1.8 4.3 0 1.6.6 3.1 1.8 4.3l16 16-17.3 17.3c-1.1 1.1-.3 3 1.3 3h36.4l16-16c.3-.3.6-.6.8-1 .6-1 1-2.1 1-3.3z"/><circle cx="15.6" cy="29.5" r="12" fill="url(#q)"/><path fill="url(#r)" d="m64.3 28h-51c-1.6 0-2.8 1.3-2.8 2.8v25.4c0 1.6 1.3 2.8 2.8 2.8h22.5v.2c0 1.6 1.3 3 3 3 1.6 0 3-1.3 3-3v-.2h22.5c1.6 0 2.8-1.3 2.8-2.8v-25.4c0-1.6-1.2-2.8-2.8-2.8z"/><path fill="url(#s)" d="m63 25h-20.7c-1.5 0-2.7.9-3.3 2.2-.1.2-.5.2-.6 0-.4-1.3-1.7-2.2-3.2-2.2h-20.6c-.7 0-1.3.6-1.3 1.3v28.4c0 .7.6 1.3 1.3 1.3h6.2 14.9c1.2 0 2.3.7 2.8 1.8.1.2.4.2.6 0 .5-1.1 1.6-1.8 2.8-1.8h14.9 6.2c.7 0 1.3-.6 1.3-1.3v-28.5c0-.6-.6-1.2-1.3-1.2z"/><g fill="url(#u)"><path d="m17.9 31.9h14.7v.9h-14.7z"/><path d="m17.9 34.7h14.7v.9h-14.7z"/><path d="m17.9 37.4h14.7v.9h-14.7z"/><path d="m17.9 40.2h14.7v.9h-14.7z"/><path d="m17.9 43h14.7v.9h-14.7z"/><path d="m17.9 45.8h14.7v.9h-14.7z"/></g><path fill="url(#v)" d="m17.9 48.5h11.7v.9h-11.7z"/><path fill="url(#w)" d="m44.9 31.9h14.7v.9h-14.7z"/><path fill="url(#w)" d="m44.9 34.7h14.7v.9h-14.7z"/><path fill="url(#w)" d="m44.9 37.4h14.7v.9h-14.7z"/><path fill="url(#w)" d="m44.9 40.2h14.7v.9h-14.7z"/><path fill="url(#w)" d="m44.9 43h14.7v.9h-14.7z"/><path fill="url(#w)" d="m44.9 45.8h14.7v.9h-14.7z"/><path fill="url(#x)" d="m44.9 48.5h11.7v.9h-11.7z"/><circle cx="61.6" cy="61.6" r="7.8" fill="url(#y)"/><circle cx="57.9" cy="61.6" r="1.1" fill="#fff"/><circle cx="61.6" cy="61.6" r="1.1" fill="#fff"/><circle cx="65.4" cy="61.6" r="1.1" fill="#fff"/></svg>