<svg xmlns="http://www.w3.org/2000/svg" xmlns:xlink="http://www.w3.org/1999/xlink" enable-background="new 0 0 75 83.8" viewBox="0 0 75 83.8"><linearGradient id="a" x1="28.457" x2="47.457" y1="74.315" y2="15.315" gradientTransform="matrix(1 0 0 -1 0 86)" gradientUnits="userSpaceOnUse"><stop offset="0" stop-color="#f56fae"/><stop offset="1" stop-color="#fb6874"/></linearGradient><linearGradient id="b"><stop offset="0" stop-color="#0e48b5"/><stop offset="1" stop-color="#30a2e3"/></linearGradient><linearGradient id="c" x1="5.409" x2="5.409" y1="9.771" y2="33.438" gradientTransform="matrix(1 -.00853353 -.00853353 -1 12.4755 78.417)" gradientUnits="userSpaceOnUse" xlink:href="#b"/><linearGradient id="d" x1="17.389" x2="64.811" y1="69.159" y2="22.541" gradientTransform="matrix(1 0 0 -1 0 86)" gradientUnits="userSpaceOnUse"><stop offset="0" stop-color="#f2f2f2"/><stop offset="1" stop-color="#b3b3b3"/></linearGradient><linearGradient id="e"><stop offset="0" stop-color="#ab5af1"/><stop offset="1" stop-color="#749cfc"/></linearGradient><linearGradient id="f" x1="28.95" x2="28.95" y1="-635.94" y2="-621.6" gradientTransform="matrix(1 0 0 -1 0 -596)" gradientUnits="userSpaceOnUse" xlink:href="#e"/><linearGradient id="g"><stop offset="0" stop-color="#34d1d9"/><stop offset="1" stop-color="#5aece5"/></linearGradient><linearGradient id="h" x1="23.219" x2="40.101" y1="-631.38" y2="-631.38" gradientTransform="matrix(1 0 0 -1 0 -596)" gradientUnits="userSpaceOnUse" xlink:href="#g"/><linearGradient id="i" x1="17.791" x2="38.965" y1="42.309" y2="42.49" gradientTransform="matrix(1 0 0 -1 0 86)" gradientUnits="userSpaceOnUse" xlink:href="#b"/><linearGradient id="j" x1="17.798" x2="38.958" y1="39.51" y2="39.69" gradientTransform="matrix(1 0 0 -1 0 86)" gradientUnits="userSpaceOnUse" xlink:href="#b"/><linearGradient id="k" x1="17.798" x2="40.102" y1="37.805" y2="37.995" gradientTransform="matrix(1 0 0 -1 0 86)" gradientUnits="userSpaceOnUse" xlink:href="#b"/><linearGradient id="l"><stop offset=".001" stop-color="#fb993c"/><stop offset=".999" stop-color="#ffc58e"/></linearGradient><linearGradient id="m" x1="17.774" x2="28.677" y1="33.104" y2="33.197" gradientTransform="matrix(1 0 0 -1 0 86)" gradientUnits="userSpaceOnUse" xlink:href="#l"/><linearGradient id="n" x1="53.25" x2="53.25" y1="-635.94" y2="-621.6" gradientTransform="matrix(1 0 0 -1 0 -596)" gradientUnits="userSpaceOnUse" xlink:href="#e"/><linearGradient id="o" x1="47.545" x2="64.427" y1="-631.38" y2="-631.38" gradientTransform="matrix(1 0 0 -1 0 -596)" gradientUnits="userSpaceOnUse" xlink:href="#g"/><linearGradient id="p" x1="42.091" x2="63.266" y1="42.309" y2="42.49" gradientTransform="matrix(1 0 0 -1 0 86)" gradientUnits="userSpaceOnUse" xlink:href="#b"/><linearGradient id="q" x1="42.098" x2="63.258" y1="39.51" y2="39.69" gradientTransform="matrix(1 0 0 -1 0 86)" gradientUnits="userSpaceOnUse" xlink:href="#b"/><linearGradient id="r" x1="42.098" x2="64.402" y1="37.805" y2="37.995" gradientTransform="matrix(1 0 0 -1 0 86)" gradientUnits="userSpaceOnUse" xlink:href="#b"/><linearGradient id="s" x1="42.099" x2="53.003" y1="33.103" y2="33.196" gradientTransform="matrix(1 0 0 -1 0 86)" gradientUnits="userSpaceOnUse" xlink:href="#l"/><linearGradient id="t" x1="25.3" x2="25.3" y1="-2063.393" y2="-2059.693" gradientTransform="matrix(1 0 0 -1 0 -2032)" gradientUnits="userSpaceOnUse" xlink:href="#l"/><linearGradient id="u" x1="49.6" x2="49.6" y1="-2063.393" y2="-2059.693" gradientTransform="matrix(1 0 0 -1 0 -2032)" gradientUnits="userSpaceOnUse" xlink:href="#l"/><path fill="url(#a)" d="m66.3 52.4c0-1.6-.6-3.1-1.8-4.3l-16-16 17.3-17.3c1.1-1.1.3-3-1.3-3h-36.4l-16 16c-1.2 1.2-1.8 2.8-1.8 4.3 0 1.6.6 3.1 1.8 4.3l16 16-17.3 17.3c-1.1 1.1-.3 3 1.3 3h36.4l16-16c.3-.3.6-.6.8-1 .6-.9 1-2.1 1-3.3z"/><circle cx="17.7" cy="56.8" r="11.8" fill="url(#c)"/><path fill="#fff" d="m67.8 21.9c0-1.6-1.2-2.9-2.6-2.9h-48.4c-1.4 0-2.6 1.3-2.6 2.9v7.3c9.1 0 13.7 3.5 18.1 7 4.6 3.5 8.9 6.8 17.7 6.8s13.1-3.3 17.7-6.8v21z"/><path fill="#f6f6f6" d="m50 43c-8.8 0-13.1-3.3-17.7-6.8-4.5-3.4-9.1-7-18.1-8.3v28.9c0 3.6.8 4.5 2.8 4.5h48c2 0 2.8-.9 2.8-3.1v-22c-4.7 3.4-9 6.8-17.8 6.8z"/><path fill="url(#d)" d="m65 61.8h-47.8c-1.9 0-3.4-1.5-3.4-3.4v-36.5c0-1.9 1.5-3.4 3.4-3.4h47.8c1.9 0 3.4 1.5 3.4 3.4v36.5c0 1.9-1.5 3.4-3.4 3.4zm-47.8-42.4c-1.3 0-2.4 1.1-2.4 2.4v36.5c0 1.3 1.1 2.4 2.4 2.4h47.8c1.3 0 2.4-1.1 2.4-2.4v-36.4c0-1.3-1.1-2.4-2.4-2.4h-47.8z"/><path fill="url(#f)" d="m19.2 25.6h19.5c.8 0 1.4.6 1.4 1.4v11.5c0 .8-.6 1.4-1.4 1.4h-19.5c-.8 0-1.4-.6-1.4-1.4v-11.5c0-.7.6-1.4 1.4-1.4z"/><path fill="#6bf9eb" d="m27.3 35.2-1.5-1.9c-.2-.2-.7-.2-.9 0l-5.4 6.6h4.1z"/><path fill="url(#h)" d="m30.5 31-3.2 4.2-3.7 4.7h15l-7.1-8.8c-.3-.3-.7-.3-1-.1z"/><path fill="url(#i)" d="m17.8 42.5h21.2v2.2h-21.2z"/><path fill="url(#j)" d="m17.8 46.1h21.2v.6h-21.2z"/><path fill="url(#k)" d="m17.8 47.8h22.3v.6h-22.3z"/><path fill="url(#m)" d="m28 54.6h-9.6c-.3 0-.6-.3-.6-.6v-2.3c0-.3.3-.6.6-.6h9.6c.3 0 .6.3.6.6v2.3c.1.3-.2.6-.6.6z"/><path fill="url(#n)" d="m43.5 25.6h19.5c.8 0 1.4.6 1.4 1.4v11.5c0 .8-.6 1.4-1.4 1.4h-19.5c-.8 0-1.4-.6-1.4-1.4v-11.5c0-.7.6-1.4 1.4-1.4z"/><path fill="#6bf9eb" d="m51.6 35.2-1.5-1.9c-.2-.2-.7-.2-.9 0l-5.4 6.6h4.1z"/><path fill="url(#o)" d="m54.8 31-3.2 4.2-3.7 4.7h15l-7.1-8.8c-.3-.3-.7-.3-1-.1z"/><path fill="url(#p)" d="m42.1 42.5h21.2v2.2h-21.2z"/><path fill="url(#q)" d="m42.1 46.1h21.2v.6h-21.2z"/><path fill="url(#r)" d="m42.1 47.8h22.3v.6h-22.3z"/><path fill="url(#s)" d="m52.4 54.6h-9.6c-.3 0-.6-.3-.6-.6v-2.3c0-.3.3-.6.6-.6h9.6c.3 0 .6.3.6.6v2.3c0 .3-.3.6-.6.6z"/><circle cx="25.3" cy="29.6" r="1.8" fill="url(#t)"/><circle cx="49.6" cy="29.6" r="1.8" fill="url(#u)"/></svg>