<svg xmlns="http://www.w3.org/2000/svg" xmlns:xlink="http://www.w3.org/1999/xlink" enable-background="new 0 0 75 83.8" viewBox="0 0 75 83.8"><linearGradient id="a" x1="28.602" x2="47.602" y1="74.53" y2="15.53" gradientTransform="matrix(1 0 0 -1 0 86)" gradientUnits="userSpaceOnUse"><stop offset="0" stop-color="#6bf9eb"/><stop offset=".516" stop-color="#30a2e3"/><stop offset="1" stop-color="#0e48b5"/></linearGradient><linearGradient id="b" x1="40.511" x2="40.511" y1="33.255" y2="56.921" gradientTransform="matrix(1 -.00853353 -.00853353 -1 12.3731 75.1999)" gradientUnits="userSpaceOnUse"><stop offset=".001" stop-color="#fb993c"/><stop offset=".999" stop-color="#ffc58e"/></linearGradient><linearGradient id="c" x1="10.536" x2="55.364" y1="61.984" y2="17.916" gradientTransform="matrix(1 0 0 -1 0 86)" gradientUnits="userSpaceOnUse"><stop offset="0" stop-color="#f2f2f2"/><stop offset="1" stop-color="#b3b3b3"/></linearGradient><linearGradient id="d"><stop offset="0" stop-color="#8f31c1"/><stop offset="1" stop-color="#f56fae"/></linearGradient><linearGradient id="e" x1="12.661" x2="53.242" y1="46.9" y2="46.9" gradientTransform="matrix(1 0 0 -1 0 86)" gradientUnits="userSpaceOnUse" xlink:href="#d"/><linearGradient id="f" x1="12.661" x2="53.242" y1="53.8" y2="53.8" gradientTransform="matrix(1 0 0 -1 0 86)" gradientUnits="userSpaceOnUse" xlink:href="#d"/><linearGradient id="g" x1="12.661" x2="53.242" y1="25" y2="25" gradientTransform="matrix(1 0 0 -1 0 86)" gradientUnits="userSpaceOnUse" xlink:href="#d"/><path fill="url(#a)" d="m66.4 52.2c0-1.6-.6-3.1-1.8-4.3l-16-16 17.3-17.3c1.1-1.1.3-3-1.3-3h-36.4l-16 16c-1.2 1.2-1.8 2.8-1.8 4.3 0 1.6.6 3.1 1.8 4.3l16 16-17.2 17.3c-1.1 1.1-.3 3 1.3 3h36.4l16-16c.3-.3.6-.6.8-1 .6-.9.9-2.1.9-3.3z"/><circle cx="52.5" cy="29.8" r="11.8" fill="url(#b)"/><path fill="#fff" d="m57.2 27.9c0-1.6-1.1-2.9-2.3-2.9h-43.9c-1.3 0-2.3 1.3-2.3 2.9v7.3c8.2 0 12.4 3.5 16.4 7 4.1 3.5 8 6.8 16 6.8s11.9-3.3 16-6.8v21z"/><path fill="#f6f6f6" d="m41.2 49c-8 0-11.9-3.3-16-6.8-4-3.4-8.2-7-16.4-8.3v28.9c0 3.6.7 4.5 2.5 4.5h43.5c1.8 0 2.5-.9 2.5-3.1l-.2-22c-4.2 3.5-7.9 6.8-15.9 6.8z"/><path fill="url(#c)" d="m54.3 67.7h-42.7c-1.9 0-3.4-1.5-3.4-3.4v-36.5c0-1.9 1.5-3.4 3.4-3.4h42.7c1.9 0 3.4 1.5 3.4 3.4v36.5c0 1.9-1.5 3.4-3.4 3.4zm-42.7-42.3c-1.3 0-2.4 1.1-2.4 2.4v36.5c0 1.3 1.1 2.4 2.4 2.4h42.7c1.3 0 2.4-1.1 2.4-2.4v-36.5c0-1.3-1.1-2.4-2.4-2.4z"/><g fill="#b3b3b3"><path d="m15.6 44.6h30.2v.7h-30.2z"/><path d="m15.6 46.6h33.1v.7h-33.1z"/><path d="m15.6 48.6h31.6v.7h-31.6z"/><path d="m15.6 50.6h30.2v.7h-30.2z"/><path d="m15.6 52.7h31.7v.7h-31.7z"/><path d="m15.6 54.7h23.6v.7h-23.6z"/></g><path fill="url(#e)" d="m14 36.4c-.7 0-1.4.6-1.4 1.4v2.6c0 .7.6 1.4 1.4 1.4h37.9c.7 0 1.4-.6 1.4-1.4v-2.6c0-.7-.6-1.4-1.4-1.4z"/><path fill="#fff" d="m15.6 38.7h21.2v.7h-21.2z"/><path fill="#fff" d="m49.4 38.2c.1 0 .1 0 .2.1l1.1 1.2c.1.1.1.3 0 .4s-.3.1-.4 0l-.9-1-.9 1c-.1.1-.3.1-.4 0s-.1-.3 0-.4l1.1-1.2c.1-.1.1-.1.2-.1z"/><path fill="url(#f)" d="m14 29.5c-.7 0-1.4.6-1.4 1.4v2.6c0 .7.6 1.4 1.4 1.4h37.9c.7 0 1.4-.6 1.4-1.4v-2.6c0-.7-.6-1.4-1.4-1.4z"/><path fill="#fff" d="m15.6 31.8h21.2v.7h-21.2z"/><path fill="#fff" d="m49.4 33c-.1 0-.1 0-.2-.1l-1.1-1.2c-.1-.1-.1-.3 0-.4s.3-.1.4 0l.9 1 .9-1c.1-.1.3-.1.4 0s.1.3 0 .4l-1.1 1.2s-.1.1-.2.1z"/><path fill="url(#g)" d="m14 58.3c-.7 0-1.4.6-1.4 1.4v2.6c0 .7.6 1.4 1.4 1.4h37.9c.7 0 1.4-.6 1.4-1.4v-2.6c0-.7-.6-1.4-1.4-1.4z"/><path fill="#fff" d="m15.6 60.7h21.2v.7h-21.2z"/><path fill="#fff" d="m49.4 61.8c-.1 0-.1 0-.2-.1l-1.1-1.2c-.1-.1-.1-.3 0-.4s.3-.1.4 0l.9 1 .9-1c.1-.1.3-.1.4 0s.1.3 0 .4l-1.1 1.2c0 .1-.1.1-.2.1z"/></svg>