<svg xmlns="http://www.w3.org/2000/svg" xmlns:xlink="http://www.w3.org/1999/xlink" enable-background="new 0 0 75 83.8" viewBox="0 0 75 83.8"><linearGradient id="a" x1="28.529" x2="48.24" y1="74.402" y2="13.194" gradientTransform="matrix(1 0 0 -1 0 86)" gradientUnits="userSpaceOnUse"><stop offset="0" stop-color="#91d9f9"/><stop offset=".496" stop-color="#30a2e3"/><stop offset=".948" stop-color="#8859f1"/></linearGradient><clipPath id="b"><circle cx="50.5" cy="43.8" r="4"/></clipPath><clipPath id="c"><circle cx="50.5" cy="43.8" r="4"/></clipPath><clipPath id="d"><circle cx="50.5" cy="43.8" r="4"/></clipPath><clipPath id="e"><circle cx="50.5" cy="43.8" r="4"/></clipPath><clipPath id="f"><circle cx="50.5" cy="43.8" r="4"/></clipPath><clipPath id="g"><circle cx="50.5" cy="43.8" r="4"/></clipPath><clipPath id="h"><circle cx="50.5" cy="43.8" r="4"/></clipPath><clipPath id="i"><circle cx="50.5" cy="43.8" r="4"/></clipPath><clipPath id="j"><circle cx="50.5" cy="43.8" r="4"/></clipPath><clipPath id="k"><circle cx="50.5" cy="43.8" r="4"/></clipPath><clipPath id="l"><circle cx="50.5" cy="43.8" r="4"/></clipPath><clipPath id="m"><circle cx="50.5" cy="43.8" r="4"/></clipPath><clipPath id="n"><circle cx="50.5" cy="43.8" r="4"/></clipPath><clipPath id="o"><circle cx="50.5" cy="43.8" r="4"/></clipPath><clipPath id="p"><circle cx="50.5" cy="43.8" r="4"/></clipPath><clipPath id="q"><circle cx="50.5" cy="43.8" r="4"/></clipPath><clipPath id="r"><circle cx="50.5" cy="43.8" r="4"/></clipPath><clipPath id="s"><circle cx="50.5" cy="43.8" r="4"/></clipPath><clipPath id="t"><circle cx="50.5" cy="43.8" r="4"/></clipPath><clipPath id="u"><circle cx="50.5" cy="43.8" r="4"/></clipPath><clipPath id="v"><circle cx="50.5" cy="43.8" r="4"/></clipPath><clipPath id="w"><circle cx="50.5" cy="43.8" r="4"/></clipPath><clipPath id="x"><circle cx="50.5" cy="43.8" r="4"/></clipPath><clipPath id="y"><circle cx="50.5" cy="43.8" r="4"/></clipPath><clipPath id="z"><circle cx="50.5" cy="43.8" r="4"/></clipPath><clipPath id="A"><circle cx="50.5" cy="43.8" r="4"/></clipPath><clipPath id="B"><circle cx="50.5" cy="43.8" r="4"/></clipPath><clipPath id="C"><circle cx="50.5" cy="43.8" r="4"/></clipPath><clipPath id="D"><circle cx="50.5" cy="43.8" r="4"/></clipPath><clipPath id="E"><circle cx="50.5" cy="43.8" r="4"/></clipPath><clipPath id="F"><circle cx="50.5" cy="43.8" r="4"/></clipPath><clipPath id="G"><circle cx="50.5" cy="43.8" r="4"/></clipPath><clipPath id="H"><circle cx="50.5" cy="43.8" r="4"/></clipPath><clipPath id="I"><circle cx="50.5" cy="43.8" r="4"/></clipPath><clipPath id="J"><circle cx="50.5" cy="43.8" r="4"/></clipPath><clipPath id="K"><circle cx="50.5" cy="43.8" r="4"/></clipPath><clipPath id="L"><circle cx="50.5" cy="43.8" r="4"/></clipPath><clipPath id="M"><circle cx="50.5" cy="43.8" r="4"/></clipPath><clipPath id="N"><circle cx="50.5" cy="43.8" r="4"/></clipPath><clipPath id="O"><circle cx="50.5" cy="43.8" r="4"/></clipPath><clipPath id="P"><circle cx="50.5" cy="43.8" r="4"/></clipPath><clipPath id="Q"><circle cx="50.5" cy="43.8" r="4"/></clipPath><clipPath id="R"><circle cx="50.5" cy="43.8" r="4"/></clipPath><clipPath id="S"><circle cx="50.5" cy="43.8" r="4"/></clipPath><clipPath id="T"><circle cx="50.5" cy="43.8" r="4"/></clipPath><clipPath id="U"><circle cx="50.5" cy="43.8" r="4"/></clipPath><clipPath id="V"><circle cx="50.5" cy="43.8" r="4"/></clipPath><clipPath id="W"><circle cx="50.5" cy="43.8" r="4"/></clipPath><linearGradient id="X" x1="27.856" x2="51.522" y1="48.997" y2="48.795" gradientTransform="matrix(1 -.00853353 -.00853353 -1 12.4755 78.417)" gradientUnits="userSpaceOnUse"><stop offset="0" stop-color="#0e48b5"/><stop offset="1" stop-color="#30a2e3"/></linearGradient><clipPath id="Y"><path d="m10.5 28.5c-1.4 0-2.5 1.1-2.5 2.5v27.4c0 1.4 1.1 2.5 2.5 2.5h55.7c1.4 0 2.5-1.1 2.5-2.5v-27.4c0-1.4-1.1-2.5-2.5-2.5z"/></clipPath><linearGradient id="Z" x1="8" x2="68.7" y1="41.3" y2="41.3" gradientTransform="matrix(1 0 0 -1 0 86)" gradientUnits="userSpaceOnUse"><stop offset="0" stop-color="#f56fae"/><stop offset="1" stop-color="#fb6874"/></linearGradient><linearGradient id="aa" x1="53.201" x2="59.373" y1="64.791" y2="41.76" gradientUnits="userSpaceOnUse"><stop offset="0" stop-color="#30a2e3"/><stop offset=".091" stop-color="#30b5dd"/><stop offset=".217" stop-color="#2fc7d8"/><stop offset=".368" stop-color="#2fd3d4"/><stop offset=".567" stop-color="#2fdbd2"/><stop offset="1" stop-color="#2fddd1"/></linearGradient><path fill="url(#a)" d="m66.4 52.4c0-1.6-.6-3.1-1.8-4.3l-16-16 17.3-17.3c1.1-1.1.3-3-1.3-3h-36.4l-16 16c-1.2 1.2-1.8 2.8-1.8 4.3 0 1.6.6 3.1 1.8 4.3l16 16-17.3 17.3c-1.1 1.1-.3 3 1.3 3h36.4l16-16c.3-.3.6-.6.8-1 .6-1 1-2.2 1-3.3z"/><path fill="#fcac60" d="m46.6 47.8h7.9z" clip-path="url(#b)"/><path fill="#fcac60" d="m46.6 47.6h7.9v.2h-7.9z" clip-path="url(#c)"/><path fill="#fcad61" d="m46.6 47.5h7.9v.2h-7.9z" clip-path="url(#d)"/><path fill="#fcad62" d="m46.6 47.3h7.9v.2h-7.9z" clip-path="url(#e)"/><path fill="#fcae63" d="m46.6 47.1h7.9v.2h-7.9z" clip-path="url(#f)"/><path fill="#fcae64" d="m46.6 46.9h7.9v.2h-7.9z" clip-path="url(#g)"/><path fill="#fcaf65" d="m46.6 46.8h7.9v.2h-7.9z" clip-path="url(#h)"/><path fill="#fcaf66" d="m46.6 46.6h7.9v.2h-7.9z" clip-path="url(#i)"/><path fill="#fcb067" d="m46.6 46.4h7.9v.2h-7.9z" clip-path="url(#j)"/><path fill="#fdb068" d="m46.6 46.3h7.9v.2h-7.9z" clip-path="url(#k)"/><path fill="#fdb169" d="m46.6 46.1h7.9v.2h-7.9z" clip-path="url(#l)"/><path fill="#fdb26a" d="m46.6 45.9h7.9v.2h-7.9z" clip-path="url(#m)"/><path fill="#fdb26b" d="m46.6 45.7h7.9v.2h-7.9z" clip-path="url(#n)"/><path fill="#fdb36c" d="m46.6 45.6h7.9v.2h-7.9z" clip-path="url(#o)"/><path fill="#fdb36d" d="m46.6 45.4h7.9v.2h-7.9z" clip-path="url(#p)"/><path fill="#fdb46e" d="m46.6 45.2h7.9v.2h-7.9z" clip-path="url(#q)"/><path fill="#fdb46f" d="m46.6 45h7.9v.2h-7.9z" clip-path="url(#r)"/><path fill="#fdb570" d="m46.6 44.9h7.9v.2h-7.9z" clip-path="url(#s)"/><path fill="#fdb571" d="m46.6 44.7h7.9v.2h-7.9z" clip-path="url(#t)"/><path fill="#fdb672" d="m46.6 44.5h7.9v.2h-7.9z" clip-path="url(#u)"/><path fill="#fdb773" d="m46.6 44.4h7.9v.2h-7.9z" clip-path="url(#v)"/><path fill="#fdb774" d="m46.6 44.2h7.9v.2h-7.9z" clip-path="url(#w)"/><path fill="#fdb875" d="m46.6 44h7.9v.2h-7.9z" clip-path="url(#x)"/><path fill="#fdb876" d="m46.6 43.8h7.9v.2h-7.9z" clip-path="url(#y)"/><path fill="#feb978" d="m46.6 43.7h7.9v.2h-7.9z" clip-path="url(#z)"/><path fill="#feb979" d="m46.6 43.5h7.9v.2h-7.9z" clip-path="url(#A)"/><path fill="#feba7a" d="m46.6 43.3h7.9v.2h-7.9z" clip-path="url(#B)"/><path fill="#feba7b" d="m46.6 43.2h7.9v.2h-7.9z" clip-path="url(#C)"/><path fill="#febb7c" d="m46.6 43h7.9v.2h-7.9z" clip-path="url(#D)"/><path fill="#febc7d" d="m46.6 42.8h7.9v.2h-7.9z" clip-path="url(#E)"/><path fill="#febc7e" d="m46.6 42.6h7.9v.2h-7.9z" clip-path="url(#F)"/><path fill="#febd7f" d="m46.6 42.5h7.9v.2h-7.9z" clip-path="url(#G)"/><path fill="#febd80" d="m46.6 42.3h7.9v.2h-7.9z" clip-path="url(#H)"/><path fill="#febe81" d="m46.6 42.1h7.9v.2h-7.9z" clip-path="url(#I)"/><path fill="#febe82" d="m46.6 42h7.9v.2h-7.9z" clip-path="url(#J)"/><path fill="#febf83" d="m46.6 41.8h7.9v.2h-7.9z" clip-path="url(#K)"/><path fill="#febf84" d="m46.6 41.6h7.9v.2h-7.9z" clip-path="url(#L)"/><path fill="#fec085" d="m46.6 41.4h7.9v.2h-7.9z" clip-path="url(#M)"/><path fill="#fec186" d="m46.6 41.3h7.9v.2h-7.9z" clip-path="url(#N)"/><path fill="#ffc187" d="m46.6 41.1h7.9v.2h-7.9z" clip-path="url(#O)"/><path fill="#ffc288" d="m46.6 40.9h7.9v.2h-7.9z" clip-path="url(#P)"/><path fill="#ffc289" d="m46.6 40.8h7.9v.2h-7.9z" clip-path="url(#Q)"/><path fill="#ffc38a" d="m46.6 40.6h7.9v.2h-7.9z" clip-path="url(#R)"/><path fill="#ffc38b" d="m46.6 40.4h7.9v.2h-7.9z" clip-path="url(#S)"/><path fill="#ffc48c" d="m46.6 40.2h7.9v.2h-7.9z" clip-path="url(#T)"/><path fill="#ffc48d" d="m46.6 40.1h7.9v.2h-7.9z" clip-path="url(#U)"/><path fill="#ffc58e" d="m46.6 39.9h7.9v.2h-7.9z" clip-path="url(#V)"/><path fill="#ffc58e" d="m46.6 39.9h7.9z" clip-path="url(#W)"/><circle cx="51.7" cy="29.2" r="11.8" fill="url(#X)"/><g clip-path="url(#Y)"><path fill="url(#Z)" d="m10.5 28.5c-1.4 0-2.5 1.1-2.5 2.5v27.4c0 1.4 1.1 2.5 2.5 2.5h55.7c1.4 0 2.5-1.1 2.5-2.5v-27.4c0-1.4-1.1-2.5-2.5-2.5z"/></g><path fill="#6bf9eb" d="m31.1 61.2 11.9-15.2s.3-.4 1-.5 1 .2 1.7 1.1 8 10 8 10v4.5h-22.6z" clip-path="url(#Y)"/><path fill="url(#aa)" d="m39.6 61.2 15.4-19.5s.4-.5 1.2-.6c.9-.1 1.2.3 2.1 1.4s10.3 12.9 10.3 12.9v5.8z" clip-path="url(#Y)"/><g fill="#fff"><path d="m15.3 37.4h20.7v2.5h-20.7z"/><path d="m15.3 42.7h20v.7h-20z"/><path d="m15.3 44.7h25.7v.7h-25.7z"/></g><path fill="#ffc58e" d="m29.4 53.5h-13.7c-.3 0-.5-.2-.5-.5v-3.8c0-.3.2-.5.5-.5h13.7c.3 0 .5.2.5.5v3.8c-.1.3-.3.5-.5.5z"/></svg>