<svg xmlns="http://www.w3.org/2000/svg" xmlns:xlink="http://www.w3.org/1999/xlink" enable-background="new 0 0 75 83.8" viewBox="0 0 75 83.8"><linearGradient id="a" x1="14.675" x2="14.675" y1="70.276" y2="46.61" gradientTransform="matrix(1 -.00853353 .00853353 1 9.6444 -6.0579)" gradientUnits="userSpaceOnUse"><stop offset=".001" stop-color="#fb993c"/><stop offset=".999" stop-color="#ffc58e"/></linearGradient><linearGradient id="b" x1="28.431" x2="48.142" y1="11.455" y2="72.663" gradientUnits="userSpaceOnUse"><stop offset="0" stop-color="#0e48b5"/><stop offset=".484" stop-color="#30a2e3"/><stop offset="1" stop-color="#6bf9eb"/></linearGradient><linearGradient id="c"><stop offset="0" stop-color="#fc7d76"/><stop offset="1" stop-color="#fcac60"/></linearGradient><linearGradient id="d" x1="57.14" x2="61.407" y1="18.89" y2="23.156" gradientUnits="userSpaceOnUse" xlink:href="#c"/><linearGradient id="e" x1="29.915" x2="44.175" y1="43.251" y2="43.251" gradientUnits="userSpaceOnUse"><stop offset="0" stop-color="#b3b3b3"/><stop offset="1" stop-color="#f2f2f2"/></linearGradient><linearGradient id="f" x1="538.536" x2="540.795" y1="-890.402" y2="-897.022" gradientTransform="matrix(.7071 .7071 -.7071 .7071 -976.8859 293.0055)" gradientUnits="userSpaceOnUse" xlink:href="#c"/><linearGradient id="g" x1="35.99" x2="39.197" y1="42.703" y2="42.703" gradientUnits="userSpaceOnUse" xlink:href="#c"/><linearGradient id="h" x1="33.883" x2="36.766" y1="44.971" y2="44.971" gradientUnits="userSpaceOnUse" xlink:href="#c"/><linearGradient id="i" x1="539.487" x2="541.747" y1="-890.077" y2="-896.697" gradientTransform="matrix(.7071 .7071 -.7071 .7071 -976.8859 293.0055)" gradientUnits="userSpaceOnUse" xlink:href="#c"/><linearGradient id="j"><stop offset="0" stop-color="#f2f2f2"/><stop offset="1" stop-color="#b3b3b3"/></linearGradient><linearGradient id="k" x1="214.231" x2="214.231" y1="136.45" y2="94.37" gradientTransform="matrix(.4408 .8976 -.8976 .4408 40.1689 -206.6163)" gradientUnits="userSpaceOnUse" xlink:href="#j"/><linearGradient id="l" x1="32.455" x2="55.03" y1="49.283" y2="49.283" gradientUnits="userSpaceOnUse" xlink:href="#j"/><linearGradient id="m" x1="552.343" x2="557.343" y1="-873.708" y2="-873.708" gradientTransform="matrix(.7071 .7071 -.7071 .7071 -976.8859 293.0055)" gradientUnits="userSpaceOnUse"><stop offset="0" stop-color="#fcac60"/><stop offset="1" stop-color="#fc7d76"/></linearGradient><linearGradient id="n" x1="552.191" x2="538.696" y1="-907.952" y2="-921.447" gradientTransform="matrix(.7071 .7071 -.7071 .7071 -980.3837 289.3056)" gradientUnits="userSpaceOnUse" xlink:href="#c"/><linearGradient id="o" x1="535.198" x2="536.198" y1="-912.092" y2="-912.092" gradientTransform="matrix(.7071 .7071 -.7071 .7071 -971.6486 294.3528)" gradientUnits="userSpaceOnUse" xlink:href="#c"/><circle cx="24.8" cy="52.3" r="11.8" fill="url(#a)"/><path fill="url(#b)" d="m66.3 52.2c0-1.6-.6-3.1-1.8-4.3l-16-16 17.3-17.3c1.1-1.1.3-3-1.3-3h-36.4l-16 16c-1.2 1.2-1.8 2.8-1.8 4.3 0 1.6.6 3.1 1.8 4.3l16 16-17.3 17.3c-1.1 1.1-.3 3 1.3 3h36.4l16-16c.3-.3.6-.6.8-1 .6-.9 1-2.1 1-3.3z"/><path fill="#ccc" d="m36.6 69.2-6.5 8 2.4-10z"/><path fill="url(#d)" d="m55.5 26-1.1-1.1c-.9-.9-.9-2.3 0-3.1l5.6-5.6c.9-.9 2.3-.9 3.1 0l1.1 1.1c.9.9.9 2.3 0 3.1l-5.6 5.6c-.9.8-2.3.8-3.1 0z"/><path fill="url(#e)" d="m41.8 50-11.5-11.5c-.5-.5-.5-1.4 0-2 .5-.5 1.4-.5 2 0l11.5 11.5c.5.5.5 1.4 0 2-.6.5-1.5.5-2 0z"/><path fill="#fff" d="m39.9 42.4c.3-.3.3-.8 0-1.1l-.9-.9c-.3-.3-.8-.3-1.1 0l-.7.7 2 2z"/><path fill="url(#f)" d="m39.9 42.4c.3-.3.3-.8 0-1.1l-.9-.9c-.3-.3-.8-.3-1.1 0l-.7.7 2 2z"/><path fill="#fff" d="m36.7 41.3h1.7v2.8h-1.7z" transform="matrix(.7071 -.7071 .7071 .7071 -19.1845 39.0898)"/><path fill="url(#g)" d="m38 44.3 1.2-1.2-2-2-1.2 1.2z"/><path fill="#fff" d="m34.1 44.2c-.3.3-.3.8 0 1.1l.9.9c.3.3.8.3 1.1 0l.7-.7-2-2z"/><path fill="url(#h)" d="m34.1 44.2c-.3.3-.3.8 0 1.1l.9.9c.3.3.8.3 1.1 0l.7-.7-2-2z"/><g fill="#fff"><path d="m36.7 41.3h1.7v2.8h-1.7z" opacity=".4" transform="matrix(.7071 -.7071 .7071 .7071 -19.1845 39.0898)"/><path d="m34.1 44.2c-.3.3-.3.8 0 1.1l.9.9c.3.3.8.3 1.1 0l.7-.7-2-2z" opacity=".4"/><path d="m35.5 42.5h1.7v2.8h-1.7z" transform="matrix(.7071 -.7071 .7071 .7071 -20.3998 38.5864)"/></g><path fill="url(#i)" d="m34.8 43.5 2 2 1.2-1.2-2-2z"/><path fill="url(#k)" d="m13.1 47.8-2-4.1 37.8-18.4 2 4.1z"/><path fill="#ccc" d="m11.1 43.7-8 6.5 10-2.4z"/><path fill="url(#l)" d="m32.5 67.2 4.1 2 18.4-37.8-4.1-2.1z"/><circle cx="33.3" cy="67.5" r="2.5" fill="url(#m)"/><circle cx="52.1" cy="28.2" r="9.5" fill="url(#n)"/><ellipse cx="52.1" cy="28.2" fill="#fff" rx="4.2" ry="4.2" transform="matrix(.7071 -.7071 .7071 .7071 -4.6844 45.0959)"/><path fill="url(#o)" d="m50.1 30.2c-.2-.2-.2-.5 0-.7l3.4-3.4c.2-.2.5-.2.7 0 .2.2.2.5 0 .7l-3.4 3.4c-.2.2-.5.2-.7 0z"/></svg>