<svg xmlns="http://www.w3.org/2000/svg" xmlns:xlink="http://www.w3.org/1999/xlink" enable-background="new 0 0 75 83.8" viewBox="0 0 75 83.8"><linearGradient id="a"><stop offset=".001" stop-color="#fb993c"/><stop offset=".999" stop-color="#ffc58e"/></linearGradient><linearGradient id="b" x1="58.242" x2="58.242" y1="44.313" y2="20.313" gradientUnits="userSpaceOnUse" xlink:href="#a"/><linearGradient id="c" x1="28.525" x2="48.236" y1="11.599" y2="72.807" gradientUnits="userSpaceOnUse"><stop offset="0" stop-color="#fa96d3"/><stop offset="1" stop-color="#0f39c3"/></linearGradient><clipPath id="d"><circle cx="50.5" cy="43.8" r="4"/></clipPath><linearGradient id="e" x1="251.659" x2="270.659" y1="159.563" y2="218.563" gradientUnits="userSpaceOnUse"><stop offset="0" stop-color="#0f39c3"/><stop offset="1" stop-color="#fa96d3"/></linearGradient><linearGradient id="f"><stop offset="0" stop-color="#fb6874"/><stop offset="1" stop-color="#f56fae"/></linearGradient><linearGradient id="g" x1="227.112" x2="227.112" y1="219.19" y2="195.524" gradientTransform="matrix(1 -.00853353 .00853353 1 8.7293 -5.296)" gradientUnits="userSpaceOnUse" xlink:href="#f"/><linearGradient id="h"><stop offset="0" stop-color="#f2f2f2"/><stop offset="1" stop-color="#b3b3b3"/></linearGradient><linearGradient id="i" x1="269.087" x2="289.42" y1="184.576" y2="204.564" gradientUnits="userSpaceOnUse" xlink:href="#h"/><linearGradient id="j"><stop offset="0" stop-color="#30a2e3"/><stop offset="1" stop-color="#2fddd1"/></linearGradient><linearGradient id="k" x1="271.163" x2="289.358" y1="178.848" y2="178.848" gradientUnits="userSpaceOnUse" xlink:href="#j"/><linearGradient id="l" x1="274.368" x2="286.154" y1="199.962" y2="199.962" gradientUnits="userSpaceOnUse" xlink:href="#a"/><linearGradient id="m" x1="233.921" x2="254.762" y1="184.326" y2="204.814" gradientUnits="userSpaceOnUse" xlink:href="#h"/><linearGradient id="n" x1="233.751" x2="251.946" y1="178.848" y2="178.848" gradientUnits="userSpaceOnUse" xlink:href="#j"/><linearGradient id="o" x1="236.955" x2="248.742" y1="199.962" y2="199.962" gradientUnits="userSpaceOnUse" xlink:href="#a"/><linearGradient id="p" x1="250.218" x2="272.874" y1="185.123" y2="207.396" gradientUnits="userSpaceOnUse" xlink:href="#h"/><linearGradient id="q" x1="250.884" x2="272.226" y1="177.231" y2="177.231" gradientUnits="userSpaceOnUse" xlink:href="#j"/><linearGradient id="r" x1="254.642" x2="268.467" y1="202.583" y2="202.583" gradientUnits="userSpaceOnUse" xlink:href="#a"/><linearGradient id="s" x1="2.002" x2="30.024" y1="27.506" y2="55.053" gradientUnits="userSpaceOnUse" xlink:href="#h"/><linearGradient id="t"><stop offset="0" stop-color="#2fddd1"/><stop offset="1" stop-color="#0e48b5"/></linearGradient><linearGradient id="u" x1="16.013" x2="16.013" y1="35.507" y2="29.251" gradientUnits="userSpaceOnUse" xlink:href="#t"/><linearGradient id="v"><stop offset="0" stop-color="#8f31c1"/><stop offset="1" stop-color="#f56fae"/></linearGradient><linearGradient id="w" x1="9.56" x2="22.465" y1="38.726" y2="38.615" gradientUnits="userSpaceOnUse" xlink:href="#v"/><linearGradient id="x" x1="7.561" x2="24.465" y1="41.493" y2="41.348" gradientUnits="userSpaceOnUse" xlink:href="#v"/><linearGradient id="y" x1="9.56" x2="22.465" y1="44.226" y2="44.115" gradientUnits="userSpaceOnUse" xlink:href="#v"/><linearGradient id="z" x1="10.254" x2="10.254" y1="54.716" y2="51.925" gradientUnits="userSpaceOnUse" xlink:href="#f"/><linearGradient id="A" x1="30.315" x2="58.337" y1="27.506" y2="55.053" gradientUnits="userSpaceOnUse" xlink:href="#h"/><linearGradient id="B" x1="44.326" x2="44.326" y1="35.507" y2="29.251" gradientUnits="userSpaceOnUse" xlink:href="#t"/><linearGradient id="C" x1="37.873" x2="50.778" y1="38.726" y2="38.615" gradientUnits="userSpaceOnUse" xlink:href="#v"/><linearGradient id="D" x1="35.873" x2="52.778" y1="41.493" y2="41.348" gradientUnits="userSpaceOnUse" xlink:href="#v"/><linearGradient id="E" x1="37.873" x2="50.778" y1="44.226" y2="44.115" gradientUnits="userSpaceOnUse" xlink:href="#v"/><linearGradient id="F" x1="38.567" x2="38.567" y1="54.716" y2="51.925" gradientUnits="userSpaceOnUse" xlink:href="#f"/><circle cx="58.2" cy="32.3" r="12" fill="url(#b)"/><path fill="url(#c)" d="m66.4 52.4c0-1.6-.6-3.1-1.8-4.3l-16-16 17.3-17.3c1.1-1.1.3-3-1.3-3h-36.4l-16 16c-1.2 1.2-1.8 2.8-1.8 4.3 0 1.6.6 3.1 1.8 4.3l16 16-17.3 17.3c-1.1 1.1-.3 3 1.3 3h36.4l16-16c.3-.3.6-.6.8-1 .6-1 1-2.2 1-3.3z"/><path fill="#fcac60" d="m46.6 47.6h7.9v.2h-7.9z" clip-path="url(#d)"/><path fill="#fcad61" d="m46.6 47.5h7.9v.2h-7.9z" clip-path="url(#d)"/><path fill="#fcad62" d="m46.6 47.3h7.9v.2h-7.9z" clip-path="url(#d)"/><path fill="#fcae63" d="m46.6 47.1h7.9v.2h-7.9z" clip-path="url(#d)"/><path fill="#fcae64" d="m46.6 46.9h7.9v.2h-7.9z" clip-path="url(#d)"/><path fill="#fcaf65" d="m46.6 46.8h7.9v.2h-7.9z" clip-path="url(#d)"/><path fill="#fcaf66" d="m46.6 46.6h7.9v.2h-7.9z" clip-path="url(#d)"/><path fill="#fcb067" d="m46.6 46.4h7.9v.2h-7.9z" clip-path="url(#d)"/><path fill="#fdb068" d="m46.6 46.3h7.9v.2h-7.9z" clip-path="url(#d)"/><path fill="#fdb169" d="m46.6 46.1h7.9v.2h-7.9z" clip-path="url(#d)"/><path fill="#fdb26a" d="m46.6 45.9h7.9v.2h-7.9z" clip-path="url(#d)"/><path fill="#fdb26b" d="m46.6 45.7h7.9v.2h-7.9z" clip-path="url(#d)"/><path fill="#fdb36c" d="m46.6 45.6h7.9v.2h-7.9z" clip-path="url(#d)"/><path fill="#fdb36d" d="m46.6 45.4h7.9v.2h-7.9z" clip-path="url(#d)"/><path fill="#fdb46e" d="m46.6 45.2h7.9v.2h-7.9z" clip-path="url(#d)"/><path fill="#fdb46f" d="m46.6 45h7.9v.2h-7.9z" clip-path="url(#d)"/><path fill="#fdb570" d="m46.6 44.9h7.9v.2h-7.9z" clip-path="url(#d)"/><path fill="#fdb571" d="m46.6 44.7h7.9v.2h-7.9z" clip-path="url(#d)"/><path fill="#fdb672" d="m46.6 44.5h7.9v.2h-7.9z" clip-path="url(#d)"/><path fill="#fdb773" d="m46.6 44.4h7.9v.2h-7.9z" clip-path="url(#d)"/><path fill="#fdb774" d="m46.6 44.2h7.9v.2h-7.9z" clip-path="url(#d)"/><path fill="#fdb875" d="m46.6 44h7.9v.2h-7.9z" clip-path="url(#d)"/><path fill="#fdb876" d="m46.6 43.8h7.9v.2h-7.9z" clip-path="url(#d)"/><path fill="#feb978" d="m46.6 43.7h7.9v.2h-7.9z" clip-path="url(#d)"/><path fill="#feb979" d="m46.6 43.5h7.9v.2h-7.9z" clip-path="url(#d)"/><path fill="#feba7a" d="m46.6 43.3h7.9v.2h-7.9z" clip-path="url(#d)"/><path fill="#feba7b" d="m46.6 43.2h7.9v.2h-7.9z" clip-path="url(#d)"/><path fill="#febb7c" d="m46.6 43h7.9v.2h-7.9z" clip-path="url(#d)"/><path fill="#febc7d" d="m46.6 42.8h7.9v.2h-7.9z" clip-path="url(#d)"/><path fill="#febc7e" d="m46.6 42.6h7.9v.2h-7.9z" clip-path="url(#d)"/><path fill="#febd7f" d="m46.6 42.5h7.9v.2h-7.9z" clip-path="url(#d)"/><path fill="#febd80" d="m46.6 42.3h7.9v.2h-7.9z" clip-path="url(#d)"/><path fill="#febe81" d="m46.6 42.1h7.9v.2h-7.9z" clip-path="url(#d)"/><path fill="#febe82" d="m46.6 42h7.9v.2h-7.9z" clip-path="url(#d)"/><path fill="#febf83" d="m46.6 41.8h7.9v.2h-7.9z" clip-path="url(#d)"/><path fill="#febf84" d="m46.6 41.6h7.9v.2h-7.9z" clip-path="url(#d)"/><path fill="#fec085" d="m46.6 41.4h7.9v.2h-7.9z" clip-path="url(#d)"/><path fill="#fec186" d="m46.6 41.3h7.9v.2h-7.9z" clip-path="url(#d)"/><path fill="#ffc187" d="m46.6 41.1h7.9v.2h-7.9z" clip-path="url(#d)"/><path fill="#ffc288" d="m46.6 40.9h7.9v.2h-7.9z" clip-path="url(#d)"/><path fill="#ffc289" d="m46.6 40.8h7.9v.2h-7.9z" clip-path="url(#d)"/><path fill="#ffc38a" d="m46.6 40.6h7.9v.2h-7.9z" clip-path="url(#d)"/><path fill="#ffc38b" d="m46.6 40.4h7.9v.2h-7.9z" clip-path="url(#d)"/><path fill="#ffc48c" d="m46.6 40.2h7.9v.2h-7.9z" clip-path="url(#d)"/><path fill="#ffc48d" d="m46.6 40.1h7.9v.2h-7.9z" clip-path="url(#d)"/><path fill="#ffc58e" d="m46.6 39.9h7.9v.2h-7.9z" clip-path="url(#d)"/><path fill="url(#e)" d="m289.5 200.3c0-1.6-.6-3.1-1.8-4.3l-16-16 17.3-17.3c1.1-1.1.3-3-1.3-3h-36.4l-16 16c-1.2 1.2-1.8 2.8-1.8 4.3 0 1.6.6 3.1 1.8 4.3l16 16-17.3 17.3c-1.1 1.1-.3 3 1.3 3h36.4l16-16c.3-.3.6-.6.8-1 .7-.9 1-2.1 1-3.3z"/><circle cx="237.6" cy="200.1" r="11.8" fill="url(#g)"/><path fill="#fff" d="m269.6 183.6v19.6c0 1.5 1.2 2.8 2.8 2.8h13.7c1.5 0 2.8-1.2 2.8-2.8v-19.6z"/><path fill="url(#i)" d="m270 184.5v18.9c0 1.1.9 2.1 2.1 2.1h14.4c1.1 0 2.1-.9 2.1-2.1v-18.9h.9v18.9c0 1.6-1.3 2.9-2.9 2.9h-14.4c-1.6 0-2.9-1.3-2.9-2.9v-18.9"/><path fill="url(#k)" d="m287.3 173.2h-14c-1.2 0-2.1.9-2.1 2.1v9.2h18.2v-9.2c0-1.2-1-2.1-2.1-2.1z"/><path fill="#fff" d="m281.6 177.1c-.3-.2-.6-.4-.9-.5v1.6c1.1.4 1.5.9 1.5 1.7 0 .8-.6 1.4-1.5 1.5v.8h-.7v-.8c-.6-.1-1.2-.3-1.7-.8l.5-.7c.4.3.7.6 1.2.6v-1.5c-1-.4-1.5-.8-1.5-1.7 0-.8.6-1.4 1.5-1.5v-.5h.6v.5c.5.1 1 .3 1.4.6zm-1.6.9v-1.4c-.4.1-.6.3-.6.7.1.2.2.4.6.7zm.7 1.2v1.5c.4-.1.6-.3.6-.7 0-.4-.2-.6-.6-.8z"/><g fill="#ccc"><path d="m274.3 187.9h11.8v.8h-11.8z"/><path d="m274.3 190.2h11.8v.8h-11.8z"/><path d="m284 193.3h-9.7v-.8h11.9v.8z"/><path d="m274.3 194.9h11.8v.8h-11.8z"/></g><path fill="url(#l)" d="m285.6 202.3h-10.7c-.3 0-.5-.2-.5-.5v-3.7c0-.3.2-.5.5-.5h10.7c.3 0 .5.2.5.5v3.7c.1.3-.2.5-.5.5z"/><path fill="#fff" d="m234.2 183.6v19.6c0 1.5 1.2 2.8 2.8 2.8h14.7c1.5 0 2.8-1.2 2.8-2.8v-19.6z"/><path fill="url(#m)" d="m234.6 184.5v18.9c0 1.1.9 2.1 2.1 2.1h15.3c1.1 0 2.1-.9 2.1-2.1v-18.9h.9v18.9c0 1.6-1.3 2.9-2.9 2.9h-15.4c-1.6 0-2.9-1.3-2.9-2.9v-18.9"/><path fill="url(#n)" d="m249.8 173.2h-14c-1.2 0-2.1.9-2.1 2.1v9.2h18.2v-9.2c0-1.2-.9-2.1-2.1-2.1z"/><path fill="#fff" d="m244.2 177.1c-.3-.2-.6-.4-.9-.5v1.6c1.1.4 1.5.9 1.5 1.7 0 .8-.6 1.4-1.5 1.5v.8h-.6v-.8c-.6-.1-1.2-.3-1.7-.8l.5-.7c.4.3.7.6 1.2.6v-1.5c-1-.4-1.5-.8-1.5-1.7 0-.8.6-1.4 1.5-1.5v-.5h.6v.5c.5.1 1 .3 1.4.6zm-1.6.9v-1.4c-.4.1-.6.3-.6.7.1.2.2.4.6.7zm.6 1.2v1.5c.4-.1.6-.3.6-.7.1-.4-.1-.6-.6-.8z"/><path fill="#ccc" d="m236.9 187.9h11.8v.8h-11.8z"/><path fill="#ccc" d="m236.9 190.2h11.8v.8h-11.8z"/><path fill="#ccc" d="m246.6 193.3h-9.7v-.8h11.9v.8z"/><path fill="#ccc" d="m236.9 194.9h11.8v.8h-11.8z"/><path fill="url(#o)" d="m248.2 202.3h-10.7c-.3 0-.5-.2-.5-.5v-3.7c0-.3.2-.5.5-.5h10.7c.3 0 .5.2.5.5v3.7c0 .3-.2.5-.5.5z"/><path fill="#fff" d="m251.4 183.4v23c0 1.8 1.5 3.3 3.3 3.3h13.8c1.8 0 3.3-1.5 3.3-3.3v-23z"/><path fill="url(#p)" d="m251.9 184.4v22.2c0 1.3 1.1 2.4 2.4 2.4h14.5c1.3 0 2.4-1.1 2.4-2.4v-22.2h1v22.2c0 1.9-1.5 3.4-3.4 3.4h-14.5c-1.9 0-3.4-1.5-3.4-3.4v-22.2"/><path fill="url(#q)" d="m269.8 170h-16.4c-1.4 0-2.5 1.1-2.5 2.5v11.9h21.3v-11.9c0-1.4-1.1-2.5-2.4-2.5z"/><path fill="#fff" d="m263.1 175.7c-.3-.3-.7-.5-1.1-.6v1.9c1.3.5 1.8 1.1 1.8 2 0 1-.7 1.7-1.8 1.8v1h-.8v-1c-.7-.1-1.4-.4-2-.9l.6-.8c.4.4.9.7 1.4.8v-2c-1.2-.5-1.7-1-1.7-1.9 0-1 .7-1.6 1.7-1.8v-.6h.8v.6c.6.1 1.2.3 1.6.7zm-1.8 1.1v-1.6c-.5.1-.7.4-.7.8 0 .3.2.5.7.8zm.7 1.4v1.7c.5-.1.7-.4.7-.8 0-.4-.1-.6-.7-.9z"/><path fill="#ccc" d="m254.6 188.4h13.9v.9h-13.9z"/><path fill="#ccc" d="m254.6 191.1h13.9v.9h-13.9z"/><path fill="#ccc" d="m266 194.8h-11.4v-.9h13.9v.9z"/><path fill="#ccc" d="m254.6 196.6h13.9v.9h-13.9z"/><path fill="url(#r)" d="m267.8 205.4h-12.6c-.4 0-.6-.3-.6-.6v-4.3c0-.4.3-.6.6-.6h12.6c.4 0 .6.3.6.6v4.3c.1.3-.2.6-.6.6z"/><path fill="#fff" d="m27.5 26c0-.9-.7-1.6-1.6-1.6h-19.8c-.9 0-1.6.7-1.6 1.6v12.2c3.9 0 5.9 1.4 7.8 2.7 2 1.3 3.8 2.6 7.6 2.6s5.6-1.3 7.6-2.6v15.8z"/><path fill="#f6f6f6" d="m19.9 43.5c-3.8 0-5.6-1.3-7.6-2.6-1.9-1.3-3.9-2.7-7.8-2.7v18.5c0 .9.7 1.6 1.6 1.6h19.8c.9 0 1.6-.7 1.6-1.6v-15.9c-1.9 1.4-3.8 2.7-7.6 2.7z"/><path fill="url(#s)" d="m24.8 58.9h-17.5c-1.9 0-3.4-1.5-3.4-3.4v-28.5c0-1.9 1.5-3.4 3.4-3.4h17.5c1.9 0 3.4 1.5 3.4 3.4v28.5c0 1.9-1.6 3.4-3.4 3.4zm-17.5-34.3c-1.3 0-2.4 1.1-2.4 2.4v28.5c0 1.3 1.1 2.4 2.4 2.4h17.5c1.3 0 2.4-1.1 2.4-2.4v-28.5c0-1.3-1.1-2.4-2.4-2.4z"/><path fill="url(#u)" d="m15.2 30.3c-1.1.6-1.6 1.2-1.6 1.9.5 0 .9.2 1.2.5s.5.7.5 1.1c0 .5-.1.8-.4 1.2-.3.3-.7.5-1.1.5-.5 0-.9-.2-1.3-.6s-.6-.9-.6-1.5c0-1.7.9-3.1 2.8-4.1zm4.9-.1c-1.1.6-1.6 1.2-1.6 1.9.5 0 .8.2 1.2.5.3.3.5.7.5 1.1 0 .5-.1.8-.4 1.2-.3.3-.7.5-1.1.5-.5 0-.9-.2-1.3-.6s-.6-.9-.6-1.5c0-1.7.9-3.1 2.8-4.1z"/><path fill="url(#w)" d="m9.6 38.2h12.9v.9h-12.9z"/><path fill="url(#x)" d="m7.6 41h16.9v.9h-16.9z"/><path fill="url(#y)" d="m9.6 43.7h12.9v.9h-12.9z"/><path fill="#0e48b5" d="m14.2 50.5h10.1v.5h-10.1z"/><path fill="#0e48b5" d="m14.2 52.2h8.9v.5h-8.9z"/><path fill="#818df9" d="m12.8 51.6c0-1.4-1.1-2.5-2.5-2.5s-2.5 1.1-2.5 2.5c0 .8.4 1.6 1 2v-.2c0-.7.5-1.3 1.2-1.5-.4-.1-.6-.5-.6-.9 0-.5.4-.9.9-.9s.9.4.9.9c0 .4-.3.8-.6.9.7.1 1.2.8 1.2 1.5v.2c.6-.4 1-1.2 1-2z"/><path fill="#818df9" d="m10.6 52c-.1 0-.2 0-.3 0s-.2 0-.3 0c-.7.1-1.2.8-1.2 1.5v.2c.4.3.9.5 1.5.5s1.1-.2 1.5-.5v-.2c0-.8-.6-1.4-1.2-1.5z"/><path fill="url(#z)" d="m10.6 52c-.1 0-.2 0-.3 0s-.2 0-.3 0c-.7.1-1.2.8-1.2 1.5v.2c.4.3.9.5 1.5.5s1.1-.2 1.5-.5v-.2c0-.8-.6-1.4-1.2-1.5z"/><path fill="#ffc58e" d="m10.6 52c.4-.1.6-.5.6-.9 0-.5-.4-.9-.9-.9s-.9.4-.9.9c0 .4.3.8.6.9h.3c.1-.1.2-.1.3 0z"/><path fill="#ffc58e" d="m10.6 52c-.1 0-.2 0-.3 0s-.2 0-.3 0h.3z"/><path fill="#fff" d="m55.8 26c0-.9-.7-1.6-1.6-1.6h-19.8c-.9 0-1.6.7-1.6 1.6v12.2c3.9 0 5.9 1.4 7.8 2.7 2 1.3 3.8 2.6 7.6 2.6s5.6-1.3 7.6-2.6v15.8z"/><path fill="#f6f6f6" d="m48.2 43.5c-3.8 0-5.6-1.3-7.6-2.6-1.9-1.3-3.9-2.7-7.8-2.7v18.5c0 .9.7 1.6 1.6 1.6h19.8c.9 0 1.6-.7 1.6-1.6v-15.9c-1.9 1.4-3.8 2.7-7.6 2.7z"/><path fill="url(#A)" d="m53.1 58.9h-17.5c-1.9 0-3.4-1.5-3.4-3.4v-28.5c0-1.9 1.5-3.4 3.4-3.4h17.5c1.9 0 3.4 1.5 3.4 3.4v28.5c0 1.9-1.5 3.4-3.4 3.4zm-17.5-34.3c-1.3 0-2.4 1.1-2.4 2.4v28.5c0 1.3 1.1 2.4 2.4 2.4h17.5c1.3 0 2.4-1.1 2.4-2.4v-28.5c0-1.3-1.1-2.4-2.4-2.4z"/><path fill="url(#B)" d="m43.5 30.3c-1.1.6-1.6 1.2-1.6 1.9.5 0 .9.2 1.2.5s.5.7.5 1.1c0 .5-.1.8-.4 1.2-.3.3-.7.5-1.1.5-.5 0-.9-.2-1.3-.6s-.6-.9-.6-1.5c0-1.7.9-3.1 2.8-4.1zm4.9-.1c-1.1.6-1.6 1.2-1.6 1.9.5 0 .8.2 1.2.5.3.3.5.7.5 1.1 0 .5-.1.8-.4 1.2-.3.3-.7.5-1.1.5-.5 0-.9-.2-1.3-.6s-.6-.9-.6-1.5c0-1.7.9-3.1 2.8-4.1z"/><path fill="url(#C)" d="m37.9 38.2h12.9v.9h-12.9z"/><path fill="url(#D)" d="m35.9 41h16.9v.9h-16.9z"/><path fill="url(#E)" d="m37.9 43.7h12.9v.9h-12.9z"/><path fill="#0e48b5" d="m42.5 50.5h10.1v.5h-10.1z"/><path fill="#0e48b5" d="m42.5 52.2h8.9v.5h-8.9z"/><path fill="#818df9" d="m41.1 51.6c0-1.4-1.1-2.5-2.5-2.5s-2.5 1.1-2.5 2.5c0 .8.4 1.6 1 2v-.2c0-.7.5-1.3 1.2-1.5-.4-.1-.6-.5-.6-.9 0-.5.4-.9.9-.9s.9.4.9.9c0 .4-.3.8-.6.9.7.1 1.2.8 1.2 1.5v.2c.6-.4 1-1.2 1-2z"/><path fill="#818df9" d="m38.9 52c-.1 0-.2 0-.3 0s-.2 0-.3 0c-.7.1-1.2.8-1.2 1.5v.2c.4.3.9.5 1.5.5s1.1-.2 1.5-.5v-.2c0-.8-.5-1.4-1.2-1.5z"/><path fill="url(#F)" d="m38.9 52c-.1 0-.2 0-.3 0s-.2 0-.3 0c-.7.1-1.2.8-1.2 1.5v.2c.4.3.9.5 1.5.5s1.1-.2 1.5-.5v-.2c0-.8-.5-1.4-1.2-1.5z"/><path fill="#ffc58e" d="m38.9 52c.4-.1.6-.5.6-.9 0-.5-.4-.9-.9-.9s-.9.4-.9.9c0 .4.3.8.6.9h.3c.1-.1.2-.1.3 0z"/><path fill="#ffc58e" d="m38.9 52c-.1 0-.2 0-.3 0s-.2 0-.3 0h.3z"/></svg>