<svg xmlns="http://www.w3.org/2000/svg" xmlns:xlink="http://www.w3.org/1999/xlink" id="Layer_3" x="0" y="0" version="1.1" viewBox="0 0 155.8 175.1" xml:space="preserve" style="enable-background:new 0 0 155.8 175.1"><style type="text/css">.st0{fill:#5fb3dd}.st1{fill:#e2735d}.st2{fill:#8c33da}.st3{fill:#e1565d}.st4{fill:#47a0dd}.st5{fill:#ef9856}.st6{fill:#ea75d4}.st7{fill:#eabd59}.st8{fill:#49cbce}</style><path d="M107,175.1l43.7-44.8c3.7-3.8,5.4-8.8,5.1-13.8c0-0.4-0.1-0.8-0.1-1.2H107V175.1z" class="st0"/><path d="M48.8,0.4L48.8,0.4L5.1,45.2C1.4,49-0.3,54,0,59c0,0.4,0.1,0.7,0.1,1.1h48.6V0.4z" class="st1"/><polygon points="48.8 115.3 48.8 115.3 48.8 115.3" class="st2"/><polygon points="107 60.1 107 60.1 107 60.1" class="st2"/><polygon points="48.8 60.1 48.8 115.3 48.8 115.3 107 115.3 107 60.1 107 60.1" class="st3"/><polygon points="48.8 115.3 107 175.1 107 175.1 107 115.3" class="st4"/><polygon points="107 60.1 48.8 .4 48.8 60.1" class="st5"/><path d="M107,60.1v55.2h48.6c-0.5-3.8-2.1-7.5-4.9-10.4L107,60.1z" class="st2"/><path d="M48.8,115.3V60.1H0.2c0.5,3.8,2.1,7.5,4.9,10.4L48.8,115.3z" class="st6"/><path d="M154.3,8.5c3.1-3.2,0.9-8.5-3.6-8.5H62.3l50.3,51.5L154.3,8.5z" class="st7"/><path d="M1.5,166.8C-1.7,170,0.6,175,5,175h88.5l-50.3-51.4L1.5,166.8z" class="st8"/></svg>