<svg xmlns="http://www.w3.org/2000/svg" xmlns:xlink="http://www.w3.org/1999/xlink" id="Wave_1" x="0" y="0" filter="url(#dropShadow)" version="1.1" viewBox="0 0 1600 200" xml:space="preserve" style="enable-background:new 0 0 1600 200"><filter id="dropShadow"><feGaussianBlur in="SourceAlpha" stdDeviation="4"/><feComponentTransfer><feFuncA slope=".4" type="linear"/></feComponentTransfer><feMerge><feMergeNode/><feMergeNode in="SourceGraphic"/></feMerge></filter><path id="Shadow" d="M1341.4,48.9c-182.4,0-254.2,80.4-429.4,80.4c-117.8,0-209.7-67.5-393.5-67.5	c-142.2,0-212.6,38.8-324.6,38.8S-10,64.7-10,64.7l0,10c0,0,91.9,35.9,203.9,35.9s182.4-38.8,324.6-38.8	c183.8,0,275.7,67.5,393.5,67.5c175.2,0,247-80.4,429.4-80.4c87.6,0,158,12.9,268.6,53.1v-10C1499.4,61.8,1429,48.9,1341.4,48.9z" class="st2"/></svg>