<svg xmlns="http://www.w3.org/2000/svg" xmlns:xlink="http://www.w3.org/1999/xlink" id="Wave_2" x="0" y="0" filter="url(#dropShadow)" version="1.1" viewBox="0 0 1600 200" xml:space="preserve" style="enable-background:new 0 0 1600 200"><filter id="dropShadow"><feGaussianBlur in="SourceAlpha" stdDeviation="4"/><feComponentTransfer><feFuncA slope=".4" type="linear"/></feComponentTransfer><feMerge><feMergeNode/><feMergeNode in="SourceGraphic"/></feMerge></filter><path d="M1432.2,156.2c-88.8,16.7-156,5.3-204-8.5s-147.1-62.2-223.1-73.9c-75.4-11.6-164,7.5-275,27.9	c-111,20.4-159.1,33.8-274.1,23.8c-119.7-10.4-224.7-52-294.4-73C67.1,24-10,55.5-10,55.5v10c0,0,77.1-31.5,171.6-3	c69.7,21,174.7,62.6,294.4,73c115,10,163.1-3.4,274.1-23.8c111-20.4,199.6-39.5,275-27.9c76,11.7,175.1,60.1,223.1,73.9	s115.2,25.2,204,8.5c91-17.1,124.8-34.2,177.8-24.2c0-3.7,0-7,0-10C1557,122,1523.2,139.1,1432.2,156.2z"/></svg>