<svg xmlns="http://www.w3.org/2000/svg" xmlns:xlink="http://www.w3.org/1999/xlink" id="Layer_1" x="0" y="0" version="1.1" viewBox="0 0 50 50" xml:space="preserve" style="enable-background:new 0 0 50 50"><path d="M19.8,9.3C10.5,11.8,4.6,17,2.1,24.8c2.3-3.6,5.6-5.4,9.9-5.4c3.3,0,6,1.1,8.3,3.3c2.2,2.2,3.4,5,3.4,8.3	c0,3.2-1.1,5.8-3.3,8c-2.2,2.2-5.1,3.2-8.7,3.2c-3.7,0-6.5-1.2-8.6-3.5C1,36.3,0,33.1,0,29C0,18.3,6.5,11.2,19.6,7.9L19.8,9.3z M46.2,9.3C36.9,11.9,31,17,28.5,24.8c2.2-3.6,5.5-5.4,9.8-5.4c3.2,0,6,1.1,8.3,3.2c2.3,2.2,3.4,4.9,3.4,8.3c0,3.1-1.1,5.8-3.3,7.9	c-2.2,2.2-5.1,3.3-8.6,3.3c-3.7,0-6.6-1.1-8.6-3.4c-2.1-2.3-3.1-5.5-3.1-9.7c0-10.7,6.6-17.8,19.7-21.1L46.2,9.3z"/></svg>